<svg width="120" height="120" fill="none" xmlns="http://www.w3.org/2000/svg"><path fill-rule="evenodd" clip-rule="evenodd" d="M0 0h120v120H0V0z" fill="#2C4A96"/><path fill-rule="evenodd" clip-rule="evenodd" d="M73.412 21.63v7.343h7.751v5.434h-7.751v8.514h10.279v5.386H67.552V16.295h16.153v5.336H73.412zm-2.091 49.723l5.503-14.488h6.471l-9.121 21.994v10.017h-6.013V78.859l-9.019-21.994h6.624l5.388 14.488h.167zm-17.479-42.38h7.848v5.434h-7.797v13.9h-6.166V16.295H63.88v5.436H53.842v7.242zm7.913 59.912h-6.369L53.602 82.1h-9.477l-1.835 6.784h-6.114l8.968-32.02h7.796l8.815 32.02zM49.016 63.384h-.203L45.249 77.62h7.217l-3.45-14.236zm-11.927-47.09h6.115v32.013h-6.115V16.295zm-3.672 59.243a8.722 8.722 0 01-3.159 2.013 10.554 10.554 0 01-3.669.654h-4.28v10.672h-6.013V56.865h9.987c1.156 0 2.344.167 3.567.502a8.497 8.497 0 013.287 1.737c.968.822 1.766 1.904 2.395 3.246.628 1.343.943 3.02.943 5.033 0 1.812-.281 3.398-.841 4.757-.561 1.359-1.3 2.49-2.217 3.397zm-3.975-12.28c-.917-.873-2.089-1.31-3.515-1.31h-3.466v11.325h3.466c1.426 0 2.598-.495 3.515-1.484.918-.99 1.376-2.442 1.376-4.354 0-1.913-.458-3.305-1.376-4.177zM16.296 16.295h6.166V42.72h9.936v5.587H16.296V16.295z" fill="#fff"/></svg>