<svg width="162" height="162" fill="none" xmlns="http://www.w3.org/2000/svg"><path fill-rule="evenodd" clip-rule="evenodd" d="M0 0h162v162H0V0z" fill="#2C4A96"/><path fill-rule="evenodd" clip-rule="evenodd" d="M99.107 29.202v9.912h10.463v7.336H99.107v11.494h13.876v7.271H91.196V22h21.806v7.202H99.107zm-2.824 67.126l7.429-19.56h8.737l-12.314 29.692v13.523h-8.117V106.46L79.842 76.768h8.943l7.272 19.56h.226zM72.686 39.114h10.595v7.336H72.755v18.765h-8.324V22h21.807v7.337H72.686v9.777zm10.684 80.881h-8.599l-2.408-9.158H59.568l-2.476 9.158h-8.255l12.107-43.227h10.525l11.901 43.227zM66.172 85.569h-.275l-4.811 19.218h9.743l-4.657-19.218zM50.07 22h8.255v43.215H50.07V22zm-4.957 79.975a11.773 11.773 0 01-4.265 2.718 14.267 14.267 0 01-4.952.883h-5.779v14.407H22V76.768h13.483c1.559 0 3.164.226 4.815.679a11.457 11.457 0 014.437 2.344c1.307 1.11 2.385 2.571 3.233 4.383.849 1.812 1.273 4.076 1.273 6.794 0 2.447-.379 4.586-1.135 6.421-.757 1.834-1.754 3.364-2.993 4.586zm-5.366-16.578c-1.238-1.178-2.82-1.767-4.746-1.767h-4.678v15.288h4.678c1.926 0 3.508-.668 4.746-2.005 1.239-1.336 1.858-3.295 1.858-5.877s-.619-4.462-1.858-5.639zM22 22h8.324v35.673h13.414v7.542H22V22z" fill="#fff"/></svg>