<?xml version="1.0" encoding="utf-8"?><svg xmlns="http://www.w3.org/2000/svg" xmlns:xlink="http://www.w3.org/1999/xlink"><symbol fill="none" viewBox="0 0 46 46" id="five" xmlns="http://www.w3.org/2000/svg"><circle cx="23" cy="23" r="23" fill="#005CE6"/><path d="M23.954 17.57H21.39l.315-4.32H33.18V6.5H14.954L13.65 24.59h9.855c2.745 0 4.05 1.575 4.05 3.51 0 1.935-1.305 3.51-4.275 3.51-2.97 0-4.32-1.26-5.04-3.33l-6.21 3.6c1.935 4.635 6.255 6.75 11.25 6.75 6.075 0 11.475-3.6 11.475-10.53s-4.95-10.53-10.8-10.53z" fill="#fff"/></symbol><symbol fill="none" viewBox="0 0 46 46" id="four" xmlns="http://www.w3.org/2000/svg"><circle cx="23" cy="23" r="23" fill="#005CE6"/><path d="M35.098 26.3h-3.15v-6.75h-7.29v6.75h-6.57L28.123 6.5h-7.74L10.348 26.3v6.66h14.31V38h7.29v-5.04h3.15V26.3z" fill="#fff"/></symbol><symbol fill="none" viewBox="0 0 20 20" id="insta" xmlns="http://www.w3.org/2000/svg"><path fill-rule="evenodd" clip-rule="evenodd" d="M18.512 19.013H1.488c-.816 0-1.477-.579-1.477-1.293V2.282C.011 1.57.672.99 1.488.99h17.024c.815 0 1.476.58 1.476 1.292V17.72c0 .714-.661 1.293-1.476 1.293zM3.473 16.044h2.942V7.907H3.473v8.137zM4.964 3.985c-1.007 0-1.664.607-1.664 1.406 0 .78.638 1.406 1.625 1.406h.019c1.026 0 1.664-.626 1.664-1.406-.018-.799-.638-1.406-1.644-1.406zm12.059 7.394c0-2.5-1.452-3.663-3.387-3.663-1.562 0-2.26.79-2.651 1.344V7.907H8.043c.039.764 0 8.137 0 8.137h2.942V11.5c0-.242.019-.486.097-.659.212-.486.697-.989 1.509-.989 1.065 0 1.49.746 1.49 1.84v4.352h2.942V11.38zm-6.058-2.292l.02-.027v.027h-.02z" fill="#fff"/></symbol><symbol fill="none" viewBox="0 0 46 46" id="one" xmlns="http://www.w3.org/2000/svg"><circle cx="23" cy="23" r="23" fill="#005CE6"/><path d="M21.535 6.5L13.3 9.47l1.755 6.165 5.58-1.53V38h7.2V6.5h-6.3z" fill="#fff"/></symbol><symbol fill="none" viewBox="0 0 80 80" id="puculiar-img-1" xmlns="http://www.w3.org/2000/svg"><circle cx="40" cy="40" r="33.898" fill="#005CE6"/><circle cx="40" cy="40" r="39.5" stroke="#005CE6" stroke-dasharray="5 5"/><path d="M38.685 25.5l-8.235 2.97 1.755 6.165 5.58-1.53V57h7.2V25.5h-6.3z" fill="#fff"/></symbol><symbol fill="none" viewBox="0 0 80 80" id="puculiar-img-2" xmlns="http://www.w3.org/2000/svg"><circle cx="40" cy="40" r="39.5" stroke="#005CE6" stroke-dasharray="5 5"/><circle cx="40" cy="40" r="33.898" fill="#005CE6"/><path d="M29.99 57h21.42v-6.93H40.835l5.22-5.265c2.88-2.88 4.905-6.12 4.905-9.9 0-6.345-5.04-10.035-10.665-10.035-4.365 0-8.595 2.205-10.62 6.885l6.075 3.555c.855-1.98 2.43-3.42 4.635-3.42 2.115 0 3.375 1.35 3.375 3.33 0 1.845-1.35 3.69-3.195 5.58L29.99 51.78V57z" fill="#fff"/></symbol><symbol fill="none" viewBox="0 0 80 80" id="puculiar-img-3" xmlns="http://www.w3.org/2000/svg"><circle cx="40" cy="40" r="39.5" stroke="#005CE6" stroke-dasharray="5 5"/><circle cx="40" cy="40" r="33.898" fill="#005CE6"/><path d="M44.695 38.28l5.445-6.93V25.5H29.89v6.75h11.52l-5.715 7.245 2.745 4.095h1.485c2.97 0 4.275 1.575 4.275 3.51 0 1.935-1.305 3.51-4.275 3.51-2.745 0-4.095-1.26-4.815-3.33l-6.21 3.6c1.935 4.635 6.255 6.75 11.025 6.75C46 57.63 51.4 54.03 51.4 47.1c0-4.365-2.835-7.47-6.705-8.82z" fill="#fff"/></symbol><symbol fill="none" viewBox="0 0 80 80" id="puculiar-img-4" xmlns="http://www.w3.org/2000/svg"><circle cx="40" cy="40" r="39.5" stroke="#005CE6" stroke-dasharray="5 5"/><circle cx="40" cy="40" r="33.898" fill="#005CE6"/><path d="M51.65 45.3H48.5v-6.75h-7.29v6.75h-6.57l10.035-19.8h-7.74L26.9 45.3v6.66h14.31V57h7.29v-5.04h3.15V45.3z" fill="#fff"/></symbol><symbol fill="none" viewBox="0 0 80 80" id="puculiar-img-5" xmlns="http://www.w3.org/2000/svg"><circle cx="40" cy="40" r="39.5" stroke="#005CE6" stroke-dasharray="5 5"/><circle cx="40" cy="40" r="33.898" fill="#005CE6"/><path d="M39.825 36.57H37.26l.315-4.32H49.05V25.5H30.825L29.52 43.59h9.855c2.745 0 4.05 1.575 4.05 3.51 0 1.935-1.305 3.51-4.275 3.51-2.97 0-4.32-1.26-5.04-3.33l-6.21 3.6c1.935 4.635 6.255 6.75 11.25 6.75 6.075 0 11.475-3.6 11.475-10.53s-4.95-10.53-10.8-10.53z" fill="#fff"/></symbol><symbol fill="none" viewBox="0 0 46 46" id="three" xmlns="http://www.w3.org/2000/svg"><circle cx="23" cy="23" r="23" fill="#005CE6"/><path d="M27.824 19.28l5.445-6.93V6.5H13.02v6.75h11.52l-5.715 7.245 2.745 4.095h1.485c2.97 0 4.275 1.575 4.275 3.51 0 1.935-1.305 3.51-4.275 3.51-2.745 0-4.095-1.26-4.815-3.33l-6.21 3.6c1.935 4.635 6.255 6.75 11.025 6.75 6.075 0 11.475-3.6 11.475-10.53 0-4.365-2.835-7.47-6.705-8.82z" fill="#fff"/></symbol><symbol fill="none" viewBox="0 0 46 46" id="two" xmlns="http://www.w3.org/2000/svg"><circle cx="23" cy="23" r="23" fill="#005CE6"/><path d="M11.99 38h21.42v-6.93H22.835l5.22-5.265c2.88-2.88 4.905-6.12 4.905-9.9 0-6.345-5.04-10.035-10.665-10.035-4.365 0-8.595 2.205-10.62 6.885l6.075 3.555c.855-1.98 2.43-3.42 4.635-3.42 2.115 0 3.375 1.35 3.375 3.33 0 1.845-1.35 3.69-3.195 5.58L11.99 32.78V38z" fill="#fff"/></symbol></svg>