<?xml version="1.0" encoding="utf-8"?><svg xmlns="http://www.w3.org/2000/svg" xmlns:xlink="http://www.w3.org/1999/xlink"><symbol viewBox="0 0 45 13" id="arrow" xmlns="http://www.w3.org/2000/svg"><path d="M1 5.75a.75.75 0 000 1.5v-1.5zm44.03 1.28a.75.75 0 000-1.06l-4.773-4.773a.75.75 0 00-1.06 1.06L43.439 6.5l-4.242 4.243a.75.75 0 001.06 1.06L45.03 7.03zM1 7.25h43.5v-1.5H1v1.5z"/></symbol><symbol viewBox="0 0 57 50" id="buy" xmlns="http://www.w3.org/2000/svg"><path d="M53.791 50H33.636a2.475 2.475 0 01-2.472-2.472V40.11H2.473A2.475 2.475 0 010 37.637V10.824a.824.824 0 111.648 0v24.34h27.043a.824.824 0 110 1.65H1.648v.823c0 .455.37.825.825.825h28.69V25.714H7.244a2.475 2.475 0 01-2.473-2.472v-7.473a2.475 2.475 0 012.473-2.472H28.69a.824.824 0 110 1.648H7.243a.825.825 0 00-.824.824v7.473c0 .454.37.824.824.824h23.92V12.473A2.475 2.475 0 0133.637 10h14.386V8.352H.824A.824.824 0 010 7.527V2.473A2.475 2.475 0 012.473 0h36.373a.824.824 0 010 1.648H2.473a.825.825 0 00-.825.825v4.23h49.67v-4.23a.825.825 0 00-.823-.825h-8.352a.824.824 0 110-1.648h8.352a2.475 2.475 0 012.472 2.473V10h.824a2.475 2.475 0 012.473 2.473v35.055A2.475 2.475 0 0153.79 50zm-20.979-3.297v.825c0 .454.37.824.824.824h20.155c.455 0 .824-.37.824-.824v-.825H32.812zm0-1.648h21.803v-30.11H32.812v30.11zm0-31.758h21.803v-.825a.825.825 0 00-.824-.824H33.636a.825.825 0 00-.824.825v.824zM49.67 10h1.649V8.352H49.67V10zm-5.956 30.11c-5.103 0-9.254-4.151-9.254-9.253 0-5.103 4.151-9.254 9.254-9.254 1.754 0 3.46.493 4.937 1.426a.824.824 0 01-.88 1.394 7.58 7.58 0 00-4.057-1.171c-4.194 0-7.605 3.411-7.605 7.605 0 4.193 3.411 7.605 7.605 7.605 4.193 0 7.605-3.412 7.605-7.605a7.57 7.57 0 00-.821-3.442l-6.856 6.856a.824.824 0 01-1.166 0l-4.035-4.036a.824.824 0 111.165-1.165l3.453 3.452 7.013-7.012.014-.015 1.474-1.474a.824.824 0 011.165 1.166l-1.013 1.014a9.204 9.204 0 011.255 4.656c0 5.102-4.151 9.253-9.253 9.253zm-18.02-7.648a.824.824 0 01-.583-1.407l.396-.396h-9.692a.824.824 0 110-1.648h9.692l-.395-.395a.824.824 0 111.165-1.166l1.802 1.802a.824.824 0 010 1.166l-1.802 1.802a.821.821 0 01-.582.242zm.79-9.819a.824.824 0 01-.825-.824v-.886l-.767.443a.824.824 0 01-.824-1.427l.767-.444-.767-.443a.824.824 0 11.824-1.427l.767.443v-.886a.824.824 0 111.649 0v.886l.767-.443a.824.824 0 01.824 1.427l-.767.444.767.443a.824.824 0 11-.824 1.427l-.767-.443v.886a.824.824 0 01-.825.824zm-7.693 0a.824.824 0 01-.824-.824v-.886l-.767.443a.824.824 0 01-.825-1.427l.768-.444-.768-.443a.824.824 0 01.825-1.427l.767.443v-.886a.824.824 0 111.648 0v.886l.768-.443a.824.824 0 01.824 1.427l-.767.444.767.443a.824.824 0 11-.824 1.427l-.768-.443v.886a.824.824 0 01-.824.824zm-7.692 0a.824.824 0 01-.824-.824v-.886l-.768.443a.824.824 0 01-.824-1.427l.768-.444-.768-.443a.824.824 0 01.824-1.427l.768.443v-.886a.824.824 0 111.648 0v.886l.767-.443a.824.824 0 01.825 1.427l-.768.444.768.443a.824.824 0 11-.825 1.427l-.767-.443v.886a.824.824 0 01-.824.824zM48.79 5.055a.88.88 0 010-1.758.88.88 0 010 1.758zm-3.296 0a.88.88 0 010-1.758.88.88 0 010 1.758zm-3.297 0a.88.88 0 010-1.758.88.88 0 010 1.758z"/></symbol><symbol viewBox="0 0 48 50" id="candy" xmlns="http://www.w3.org/2000/svg"><path d="M46.4 1.034a3.54 3.54 0 00-5 0 3.54 3.54 0 00-.475 4.408L39.07 7.297c-1.9-1.497-4.622-1.899-7.765-1.127-3.334.82-6.777 2.877-9.694 5.794-2.917 2.918-4.975 6.36-5.794 9.695-.765 3.111-.378 5.81 1.082 7.707a10.058 10.058 0 01-7.66 2.045 8.08 8.08 0 00-7.024 2.412A8.016 8.016 0 000 39.383c0 2.089.787 4.064 2.216 5.561a8.003 8.003 0 005.837 2.5c.83 0 1.641-.126 2.411-.367l-1.246 1.728a.754.754 0 101.224.882l3.386-4.696.008-.011a.885.885 0 00.025-.04l.015-.024a.688.688 0 00.02-.04l.013-.029a.682.682 0 00.015-.038l.012-.032a.787.787 0 00.018-.072.202.202 0 00.006-.034l.006-.038.003-.035a.767.767 0 00-.005-.147l-.005-.032a.748.748 0 00-.069-.207c-.005-.012-.012-.023-.018-.034l-.019-.032-.02-.029a.665.665 0 00-.074-.09l-.01-.01c-.004-.006-.01-.01-.014-.014a.707.707 0 00-.062-.053l-.015-.012-.012-.008a.832.832 0 00-.038-.024l-.026-.016a.824.824 0 00-.039-.02l-.03-.013a.792.792 0 00-.105-.036l-.036-.009a.67.67 0 00-.035-.006L13.3 43.8l-.036-.003-.035-.002h-.039l-.033.002-.04.005-.03.004a.87.87 0 00-.043.01.76.76 0 00-.07.02.718.718 0 00-.067.026l-.028.013a.783.783 0 00-.066.037l-.03.02a.735.735 0 00-.089.073l-.011.01a6.515 6.515 0 01-4.71 1.919 6.506 6.506 0 01-4.667-2.032 6.513 6.513 0 01-1.798-4.52c0-1.698.639-3.303 1.798-4.52a6.57 6.57 0 015.712-1.96 11.39 11.39 0 001.666.123c2.632 0 5.215-.912 7.275-2.577 1.274 1.026 2.927 1.55 4.834 1.55.937 0 1.936-.126 2.981-.383 3.335-.82 6.778-2.877 9.695-5.794 2.917-2.917 4.975-6.36 5.794-9.695.772-3.142.37-5.865-1.126-7.764L41.99 6.51c.58.372 1.244.558 1.909.558.905 0 1.81-.344 2.5-1.034a3.539 3.539 0 000-5zM30.457 27.93l-6.302-6.302a.754.754 0 10-1.067 1.066l6.021 6.021c-1.226.648-2.47 1.135-3.694 1.435-2.937.722-5.388.285-6.903-1.23-1.514-1.514-1.951-3.965-1.23-6.902.301-1.225.787-2.469 1.435-3.695l1.397 1.397a.754.754 0 001.066-1.067l-1.677-1.677a22.14 22.14 0 011.57-2.171L32.627 26.36a22.43 22.43 0 01-2.171 1.57zm6.397-6.05l-6.502-6.501a.754.754 0 00-1.067 1.066l6.64 6.639a24.134 24.134 0 01-2.157 2.283L22.066 13.666a24.109 24.109 0 012.283-2.157l1.975 1.976a.754.754 0 001.067-1.066l-1.838-1.839c.75-.54 1.519-1.022 2.298-1.442l10.444 10.445a20.87 20.87 0 01-1.441 2.298zm2.945-6.114a15.334 15.334 0 01-.806 2.38L29.286 8.44a15.386 15.386 0 012.38-.806 11.02 11.02 0 012.616-.34c1.772 0 3.25.532 4.287 1.57 1.514 1.514 1.951 3.966 1.23 6.902zm5.534-10.8a2.03 2.03 0 01-2.866 0 2.03 2.03 0 010-2.867 2.02 2.02 0 011.433-.592 2.02 2.02 0 011.433.592c.79.79.79 2.077 0 2.867z"/></symbol><symbol viewBox="0 0 47 50" id="card" xmlns="http://www.w3.org/2000/svg"><path d="M5.969 17.66a.79.79 0 100-1.581.79.79 0 000 1.58zm2.848 0a.79.79 0 100-1.581.79.79 0 000 1.58zm2.846 0a.79.79 0 100-1.581.79.79 0 000 1.58z"/><path d="M45.12 0H33.042c-1.03 0-1.866.837-1.866 1.867v11.947h-7.672L7.81 9.884a1.927 1.927 0 00-2.335 1.4l-.634 2.53h-.74a1.927 1.927 0 00-1.925 1.925v8.717L.058 32.91a1.912 1.912 0 00.217 1.457 1.91 1.91 0 001.183.878l.718.18v2.609c0 1.061.863 1.925 1.925 1.925h3.428a3.38 3.38 0 001.03 1.807 4.755 4.755 0 00-2.472 4.168v2.596h-.343a.735.735 0 000 1.469h10.482a.735.735 0 000-1.47h-.636v-2.595c0-1.795-1-3.36-2.473-4.168a3.381 3.381 0 001.031-1.807h6.132l15.695 3.93a1.911 1.911 0 001.457-.216 1.91 1.91 0 00.878-1.183l.633-2.531h.74a1.927 1.927 0 001.925-1.925v-8.717l2.118-8.455a1.912 1.912 0 00-.216-1.457 1.912 1.912 0 00-1.183-.878l-.718-.18v-2.61a1.927 1.927 0 00-1.925-1.924H34.29l1.056-2.01h9.773a1.87 1.87 0 001.867-1.867v-8.07A1.867 1.867 0 0045.12 0zM2.176 33.91l-.361-.09a.452.452 0 01-.331-.552l.692-2.764v3.407zm39.432-14.047l.362.09a.452.452 0 01.33.553l-.691 2.763v-3.406zM6.9 11.64a.456.456 0 01.552-.33l10.003 2.504h-11.1L6.9 11.64zm7.22 34.295v2.596H7.557v-2.596a3.285 3.285 0 013.281-3.282 3.286 3.286 0 013.282 3.282zm-5.192-6.662v-.008l.001-.027a1.919 1.919 0 011.91-1.875 1.919 1.919 0 011.91 1.902v.008c0 1.053-.857 1.91-1.91 1.91a1.912 1.912 0 01-1.911-1.91zm30.756-.783h-4.575a.735.735 0 000 1.47h2.32l-.545 2.174a.452.452 0 01-.552.33L26.33 39.96h5.84a.735.735 0 100-1.47H14.127a3.386 3.386 0 00-3.171-2.594h-.014l-.024-.002h-.039a5.334 5.334 0 00-.08 0h-.017a1.601 1.601 0 00-.045.001h-.014l-.03.002h-.004A3.386 3.386 0 007.55 38.49H4.1a.456.456 0 01-.455-.455V19.883H40.14v18.152a.456.456 0 01-.455.455zm0-23.206c.25 0 .455.204.455.455v2.675H3.645v-2.675c0-.251.205-.455.456-.455h27.075v.593a.956.956 0 00.725.926l.012.003h.003l.01.003.007.001a.217.217 0 00.025.005l.008.002c.003 0 .007 0 .01.002h.007l.015.003h.003a.959.959 0 00.06.006l.018.002h.081c.013 0 .025 0 .038-.002h.004l.014-.001h.006l.013-.002h.005l.016-.002h.002l.018-.003.006-.001.012-.002.007-.002a.283.283 0 00.01-.002l.008-.001.01-.002.008-.002.01-.002.015-.004a.898.898 0 00.008-.002l.01-.002a.375.375 0 00.007-.002l.01-.003a.164.164 0 01.006-.002l.01-.003.006-.002a1.05 1.05 0 00.038-.013l.004-.002a.232.232 0 00.011-.004l.005-.002.011-.004.004-.002a.82.82 0 00.054-.024l.002-.001.013-.007.002-.001.013-.006.001-.001a.923.923 0 00.04-.023l.013-.007.002-.002a.272.272 0 00.012-.007l.002-.002a.972.972 0 00.05-.034l.002-.002.01-.008c.002 0 .003-.002.004-.003l.01-.007.003-.003a.768.768 0 00.032-.027l.003-.003.01-.008.003-.003.009-.008.004-.004.008-.009c.002 0 .003-.002.004-.003l.016-.016.004-.005a.5.5 0 01.007-.007l.005-.005a.548.548 0 00.007-.008l.005-.006a.253.253 0 00.007-.008l.005-.006a.263.263 0 00.006-.007l.008-.01.007-.009.007-.009.005-.007a.167.167 0 00.011-.014l.006-.009.005-.006.007-.01.003-.006.01-.015.003-.004.007-.012a.167.167 0 01.004-.005l.006-.01.004-.007a1.266 1.266 0 00.018-.033l.545-1.037h6.168v-.001zm5.833-5.347a.397.397 0 01-.397.397H34.903a.735.735 0 00-.65.393l-1.608 3.06V1.867c0-.22.178-.398.397-.398H45.12c.219 0 .397.179.397.398v8.07z"/><path d="M15.393 23.403a.735.735 0 00-.734-.734H6.724a.735.735 0 000 1.469h7.935a.735.735 0 00.734-.735zm14.547-.734H17.892a.735.735 0 000 1.469h12.05a.735.735 0 100-1.47zM10.691 26.93c0 .406.33.735.735.735h6.466a.735.735 0 000-1.47h-6.466a.735.735 0 00-.735.735zm15.723.735a.735.735 0 100-1.47H20.34a.735.735 0 100 1.47h6.074zm-9.159 2.693a.735.735 0 00-.735-.734h-2.057a.735.735 0 000 1.47h2.057a.735.735 0 00.735-.736zm12.685-.734H18.774a.735.735 0 000 1.47h11.168a.735.735 0 100-1.47zm-16.457 3.429h-2.057a.735.735 0 000 1.469h2.057a.735.735 0 000-1.47zm13.421 0H15.736a.735.735 0 000 1.469h11.168a.735.735 0 000-1.47z"/></symbol><symbol viewBox="0 0 24 24" id="close" xmlns="http://www.w3.org/2000/svg"><path d="M1.414 0l21.92 21.92-1.414 1.414L0 1.414z"/><path d="M.414 22L22.334.08l1.415 1.414-21.92 21.92z"/></symbol><symbol viewBox="0 0 50 50" id="customers" xmlns="http://www.w3.org/2000/svg"><path d="M47.974 9.66H41.99a.728.728 0 000 1.456h5.984a.57.57 0 01.57.57V24.86a.57.57 0 01-.57.57H2.026a.57.57 0 01-.57-.57V11.686a.57.57 0 01.57-.57h36.86a.728.728 0 100-1.456H2.026A2.028 2.028 0 000 11.686V24.86c0 1.118.909 2.027 2.026 2.027h45.948A2.028 2.028 0 0050 24.86V11.686a2.028 2.028 0 00-2.026-2.026z"/><path d="M6.28 15.562a.728.728 0 00-.956.384 5.937 5.937 0 005.455 8.258c3.27 0 5.93-2.66 5.93-5.93 0-3.27-2.66-5.93-5.93-5.93-1.12 0-2.212.315-3.158.911a.728.728 0 00.777 1.232 4.459 4.459 0 012.382-.687 4.479 4.479 0 014.473 4.473 4.479 4.479 0 01-4.473 4.474 4.479 4.479 0 01-4.116-6.229.728.728 0 00-.384-.956zM2.602 8.203a.728.728 0 00.728-.728V2.026a.57.57 0 01.57-.57h42.2a.57.57 0 01.57.57v5.45a.728.728 0 101.456 0v-5.45A2.028 2.028 0 0046.1 0H3.9a2.028 2.028 0 00-2.026 2.026v5.45c0 .401.325.727.728.727z"/><path d="M11.878 2.477a5.518 5.518 0 00-5.495 4.918.728.728 0 001.448.16 4.064 4.064 0 014.047-3.622c2.08 0 3.82 1.557 4.046 3.622a.728.728 0 001.448-.16 5.518 5.518 0 00-5.494-4.918zm35.52 25.867a.728.728 0 00-.728.729v5.448a.57.57 0 01-.57.57H3.9a.57.57 0 01-.57-.57v-5.448a.728.728 0 10-1.457 0v5.448c0 1.118.91 2.026 2.027 2.026h42.2a2.028 2.028 0 002.027-2.026v-5.448a.728.728 0 00-.729-.729z"/><path d="M11.878 34.07a5.518 5.518 0 005.494-4.918.728.728 0 00-1.448-.16 4.064 4.064 0 01-4.046 3.622 4.064 4.064 0 01-4.047-3.621.728.728 0 00-1.448.16 5.518 5.518 0 005.495 4.918zm32.774 3.934a.728.728 0 00-.729.729v3.45a.57.57 0 01-.57.569h-14.78a.728.728 0 100 1.456h14.78a2.028 2.028 0 002.027-2.026v-3.45a.728.728 0 00-.728-.728zM26.197 43.48a.728.728 0 00-.728-.728H6.646a.57.57 0 01-.57-.57v-3.45a.728.728 0 00-1.456 0v3.45a2.03 2.03 0 002.026 2.026H25.47a.728.728 0 00.728-.728z"/><path d="M13.487 41.796a4.15 4.15 0 003.832-2.542.728.728 0 00-1.342-.566 2.699 2.699 0 01-2.49 1.652 2.698 2.698 0 01-2.491-1.652.728.728 0 10-1.342.566 4.152 4.152 0 003.833 2.542zm27.909 3.869a.728.728 0 00-.728.728v1.305a.57.57 0 01-.57.57H9.902a.57.57 0 01-.57-.57v-1.305a.728.728 0 00-1.456 0v1.305a2.03 2.03 0 002.026 2.026H40.1a2.028 2.028 0 002.026-2.026v-1.305a.728.728 0 00-.729-.728z"/><path d="M16.23 45.718a2.225 2.225 0 01-1.673 0 .728.728 0 10-.55 1.349c.442.18.908.272 1.387.272a3.65 3.65 0 001.387-.272.728.728 0 10-.551-1.349zm4.358-28.752h.956a.728.728 0 000-1.456h-.956a.728.728 0 100 1.456zm24.12-1.456H25a.728.728 0 100 1.456h19.708a.728.728 0 100-1.456zm-24.12 5.819h24.12a.728.728 0 100-1.457h-24.12a.728.728 0 100 1.457zm0-16.717a.728.728 0 000 1.456h22.937a.728.728 0 100-1.456H20.588zm22.937 27.324a.728.728 0 100-1.456H20.588a.728.728 0 100 1.456h22.937zm-2.788 8.721a.728.728 0 100-1.456h-20.15a.728.728 0 100 1.456h20.15zM19.86 46.235c0 .402.325.728.728.728h16.748a.728.728 0 100-1.456H20.588a.728.728 0 00-.729.728z"/></symbol><symbol viewBox="0 0 10 19" id="facebook" xmlns="http://www.w3.org/2000/svg"><path fill-rule="evenodd" clip-rule="evenodd" d="M6.137 18.993H2.046V9.499H.001V6.226h2.045V4.262c0-2.67 1.155-4.258 4.433-4.258h2.73v3.273H7.504c-1.278 0-1.362.458-1.362 1.312l-.005 1.637h3.092l-.362 3.273h-2.73v9.494z"/></symbol><symbol viewBox="0 0 50 50" id="filling" xmlns="http://www.w3.org/2000/svg"><path d="M9.57 3.76a.684.684 0 100-1.367.684.684 0 000 1.367zm2.881.049a.684.684 0 100-1.368.684.684 0 000 1.368zm2.881.048a.684.684 0 100-1.367.684.684 0 000 1.367z"/><path d="M42.092 0H7.908c-.995 0-1.804.81-1.804 1.805v18.558c0 .995.81 1.805 1.804 1.805h16.945v2.49a.732.732 0 101.465 0v-9.814c0-1.131-.92-2.051-2.05-2.051-1.131 0-2.051.92-2.051 2.05v2.345a.587.587 0 01-1.172 0V6.152h18.164V9.62a.732.732 0 101.465 0V6.152h1.758v14.211a.34.34 0 01-.34.34h-1.418V12.55a.732.732 0 10-1.465 0v10.889a.587.587 0 01-1.172 0v-3.516c0-1.13-.92-2.05-2.05-2.05-1.132 0-2.052.92-2.052 2.05v10.644H29.89a.733.733 0 00-.668.43l-.292.645-.4-.704a.732.732 0 00-.636-.37h-1.576v-2.98a.732.732 0 00-1.465 0v2.98h-.048a.732.732 0 00-.733.732v8.684a3.478 3.478 0 003.32 3.47v3.861A2.689 2.689 0 0030.079 50a2.689 2.689 0 002.686-2.685v-3.861a3.478 3.478 0 003.32-3.47v-8.685a.732.732 0 00-.684-.73v-8.401h1.172v1.27c0 1.13.92 2.05 2.051 2.05 1.13 0 2.05-.92 2.05-2.05v-1.27h1.419c.995 0 1.805-.81 1.805-1.805V1.805A1.809 1.809 0 0042.092 0zM21.63 19.238c1.13 0 2.05-.92 2.05-2.05v-2.344a.587.587 0 011.172 0v5.86H7.909a.34.34 0 01-.34-.34V6.151H19.58v11.035c0 1.131.92 2.051 2.05 2.051zm20.8-14.55H7.569V1.804a.34.34 0 01.34-.34h34.184a.34.34 0 01.34.34v2.883zm-7.81 35.295a2.011 2.011 0 01-2.009 2.01h-.579a.732.732 0 00-.732.732v4.59a1.222 1.222 0 01-2.442 0v-4.59a.732.732 0 00-.732-.733h-.579a2.011 2.011 0 01-2.009-2.009v-.92h9.082v.92zm0-2.385h-9.082V32.03h1.93l.9 1.583a.734.734 0 001.304-.06l.69-1.523h4.258v5.567zm1.953-16.895H35.4v-.781a.587.587 0 011.172 0v.781z"/><path d="M30.078 47.559a.635.635 0 100-1.27.635.635 0 000 1.27zM17.48 7.861H9.62a.732.732 0 100 1.465h7.86a.732.732 0 100-1.465zm-7.86 4.688h1.513a.732.732 0 100-1.465H9.619a.732.732 0 100 1.465zm7.86-1.465h-3.906a.732.732 0 100 1.465h3.906a.732.732 0 100-1.465zm-7.86 4.687h3.954a.732.732 0 100-1.464H9.62a.732.732 0 000 1.464zm7.86 1.759H9.62a.732.732 0 100 1.464h7.86a.732.732 0 100-1.465zm0-3.175h-1.562a.732.732 0 100 1.465h1.563a.732.732 0 100-1.465z"/></symbol><symbol viewBox="0 0 23 30" id="fire" xmlns="http://www.w3.org/2000/svg"><path d="M22.934 17.565c-.35-4.475-2.48-7.278-4.359-9.753-1.74-2.29-3.242-4.268-3.242-7.186a.624.624 0 00-.347-.556.645.645 0 00-.663.048C11.5 2.093 9.147 5.42 8.325 8.598c-.57 2.21-.646 4.696-.657 6.338-2.606-.544-3.196-4.357-3.202-4.399a.629.629 0 00-.333-.463.649.649 0 00-.579-.01c-.136.064-3.353 1.663-3.54 8.047C0 18.324 0 18.537 0 18.75c0 6.202 5.16 11.249 11.5 11.249.009 0 .018.002.026 0h.008C17.859 29.981 23 24.941 23 18.749c0-.311-.066-1.184-.066-1.184zM11.5 28.749c-2.114 0-3.833-1.792-3.833-3.994 0-.075 0-.151.005-.244.025-.929.206-1.563.403-1.985.371.78 1.034 1.495 2.11 1.495.353 0 .639-.28.639-.625 0-.89.018-1.916.245-2.843.201-.821.683-1.695 1.293-2.396.272.91.8 1.646 1.317 2.364.74 1.028 1.504 2.09 1.638 3.902.008.108.017.216.017.332 0 2.202-1.72 3.994-3.834 3.994z"/></symbol><symbol viewBox="0 0 241 2" id="line-1" xmlns="http://www.w3.org/2000/svg"><path d="M1.5 1H240"/></symbol><symbol viewBox="0 0 128 38" id="line-2" xmlns="http://www.w3.org/2000/svg"><path d="M1 37h75.5V1.5H127"/></symbol><symbol viewBox="0 0 106 174" id="line-3" xmlns="http://www.w3.org/2000/svg"><path d="M1.5 172.5V1h103"/></symbol><symbol viewBox="0 0 548 2" id="line-4" xmlns="http://www.w3.org/2000/svg"><path d="M1 1h546"/></symbol><symbol viewBox="0 0 2 300" id="line-5" xmlns="http://www.w3.org/2000/svg"><path d="M1 299V1"/></symbol><symbol viewBox="0 0 110 587" id="line-6" xmlns="http://www.w3.org/2000/svg"><path d="M1.5 1.5V586H109"/></symbol><symbol viewBox="0 0 171 41" id="logo" xmlns="http://www.w3.org/2000/svg"><path d="M11.774 41H22.33l6.612-23.954L35.554 41H46.11L57.304.4H47.56l-7.018 28.42L32.712.4h-7.54l-7.83 28.42L10.324.4H.58L11.774 41zm75.98 0h10.15L84.102.4H72.268L58.464 41h10.15l2.03-6.38h15.08l2.03 6.38zM73.428 25.92l4.757-14.906L82.94 25.92h-9.51zM119.636.4h-15.37V41h9.28V28.24h6.09c8.004 0 14.21-6.206 14.21-13.92 0-7.714-6.206-13.92-14.21-13.92zm0 19.14h-6.09V9.1h6.09c2.842 0 4.93 2.262 4.93 5.22 0 2.958-2.088 5.22-4.93 5.22zM156.747.4h-15.37V41h9.28V28.24h6.09c8.004 0 14.21-6.206 14.21-13.92 0-7.714-6.206-13.92-14.21-13.92zm0 19.14h-6.09V9.1h6.09c2.842 0 4.93 2.262 4.93 5.22 0 2.958-2.088 5.22-4.93 5.22z"/></symbol><symbol viewBox="0 0 50 39" id="modules" xmlns="http://www.w3.org/2000/svg"><path d="M48.291 0H35.865a.732.732 0 100 1.465h12.426c.135 0 .244.11.244.244v4.446H1.465V1.709c0-.135.11-.244.244-.244h30.785a.732.732 0 100-1.465H1.709C.767 0 0 .767 0 1.709v34.763c0 .942.767 1.71 1.709 1.71h20.629a.732.732 0 000-1.466H1.709a.244.244 0 01-.244-.244V7.62h47.07v17.89a.732.732 0 101.465 0V1.71C50 .767 49.233 0 48.291 0z"/><path d="M49.268 28.15a.732.732 0 00-.733.732v7.59c0 .135-.11.244-.244.244H25.709a.732.732 0 100 1.465h22.582c.942 0 1.709-.767 1.709-1.709v-7.59a.732.732 0 00-.732-.733zM4.632 3.078a.732.732 0 100 1.464h.011a.732.732 0 100-1.464h-.01zm2.211 0a.732.732 0 100 1.464h.011a.732.732 0 100-1.464h-.01zm2.212 0a.732.732 0 100 1.464h.01a.732.732 0 100-1.464h-.01zm36.313 1.464a.732.732 0 100-1.464h-1.363a.732.732 0 100 1.464h1.363zM30.685 25.085h9.029a3.367 3.367 0 003.363-3.364 3.367 3.367 0 00-3.363-3.363h-9.029a3.367 3.367 0 00-3.363 3.363 3.367 3.367 0 003.363 3.364zm10.927-3.364a1.9 1.9 0 01-1.898 1.899h-6.255a3.346 3.346 0 000-3.797h6.255a1.9 1.9 0 011.898 1.898zm-10.927-1.898a1.9 1.9 0 011.898 1.898 1.9 1.9 0 01-1.898 1.899 1.9 1.9 0 01-1.898-1.899 1.9 1.9 0 011.898-1.898zm0-3.347h9.029a3.367 3.367 0 003.363-3.364 3.367 3.367 0 00-3.363-3.363h-9.029a3.367 3.367 0 00-3.363 3.363 3.367 3.367 0 003.363 3.364zm10.927-3.364a1.9 1.9 0 01-1.898 1.899 1.9 1.9 0 01-1.898-1.899 1.9 1.9 0 011.898-1.898 1.9 1.9 0 011.898 1.898zm-10.927-1.898h6.255a3.343 3.343 0 00-.59 1.898c0 .704.218 1.358.59 1.899h-6.255a1.9 1.9 0 01-1.898-1.899 1.9 1.9 0 011.898-1.898z"/><path d="M30.685 33.694h9.029a3.367 3.367 0 003.363-3.363 3.367 3.367 0 00-3.363-3.364h-9.029a3.367 3.367 0 00-3.363 3.364 3.367 3.367 0 003.363 3.363zm10.927-3.364a1.9 1.9 0 01-1.898 1.899 1.9 1.9 0 01-1.898-1.898 1.9 1.9 0 011.898-1.899 1.9 1.9 0 011.898 1.899zm-10.927-1.898h6.255a3.344 3.344 0 00-.59 1.899c0 .703.218 1.357.59 1.898h-6.255a1.9 1.9 0 01-1.898-1.898 1.9 1.9 0 011.898-1.899zm-11.81.801a.732.732 0 00-.733-.732H8.751a.732.732 0 100 1.464h9.391a.732.732 0 00.733-.732zM8.751 30.73a.732.732 0 000 1.466h3.358a.732.732 0 100-1.465H8.751zm5.437 1.466h7.204a.732.732 0 100-1.465h-7.204a.732.732 0 100 1.465zM8.751 21.339h2.598a.732.732 0 100-1.465H8.75a.732.732 0 000 1.465zm12.641-1.465h-7.945a.732.732 0 000 1.465h7.945a.732.732 0 100-1.465zm0 2.23H8.75a.732.732 0 100 1.465h12.64a.732.732 0 100-1.465zM8.751 12.712h9.391a.732.732 0 100-1.465H8.751a.732.732 0 100 1.465zm0 2.23h8.352a.732.732 0 100-1.465H8.75a.732.732 0 000 1.465zm12.641-1.465h-2.21a.732.732 0 000 1.465h2.21a.732.732 0 100-1.465z"/></symbol><symbol viewBox="0 0 47 50" id="paperclip" xmlns="http://www.w3.org/2000/svg"><path d="M12.738 33.117a2.935 2.935 0 004.15 4.15l25.094-25.094a5.569 5.569 0 000-7.88 5.574 5.574 0 00-7.88 0l-21.789 21.79a.732.732 0 001.036 1.035L35.138 5.33a4.11 4.11 0 015.808 0 4.105 4.105 0 010 5.808L15.852 36.231a1.471 1.471 0 01-2.078 0 1.471 1.471 0 010-2.078L31.427 16.5a2.061 2.061 0 10-2.916-2.916L10.857 31.236a5.596 5.596 0 000 7.91 5.596 5.596 0 007.911 0l16.222-16.22a.732.732 0 00-1.036-1.037L17.733 38.111a4.132 4.132 0 01-5.84 0 4.132 4.132 0 010-5.839L29.546 14.62a.597.597 0 11.845.845L12.738 33.117z"/><path d="M37.406 20.51l6.456-6.457a8.227 8.227 0 000-11.64 8.226 8.226 0 00-11.64 0L3.186 31.449a10.862 10.862 0 000 15.37c4.241 4.241 11.128 4.241 15.37 0L40.21 25.165a2.061 2.061 0 10-2.917-2.916L15.64 43.903a6.75 6.75 0 01-9.538 0 6.74 6.74 0 010-9.538l4.83-4.83a.732.732 0 00-1.035-1.036l-4.83 4.83a8.204 8.204 0 000 11.61 8.213 8.213 0 0011.608 0L38.33 23.285a.597.597 0 11.845.845L17.52 45.782c-3.67 3.67-9.63 3.67-13.299 0a9.398 9.398 0 010-13.299L33.257 3.45a6.762 6.762 0 019.57 0 6.762 6.762 0 010 9.569l-6.456 6.455a.732.732 0 101.035 1.036z"/></symbol><symbol viewBox="0 0 50 50" id="parset" xmlns="http://www.w3.org/2000/svg"><path d="M8.29 6.848c0 .405.328.733.732.733h.05a.732.732 0 00.732-.733c0-.976-1.514-.977-1.514 0zm2.49 0c0 .405.328.733.733.733h.049a.732.732 0 00.732-.733c0-.976-1.514-.977-1.514 0zm-4.2-.732h-.048a.732.732 0 100 1.465h.049a.732.732 0 100-1.465zm35.548 0H15.716a.732.732 0 100 1.465h26.412a.732.732 0 100-1.465z"/><path d="M43.676 0H13.063a.732.732 0 100 1.465h30.613c2.68 0 4.86 2.18 4.86 4.859v4.48H1.464v-4.48c0-2.68 2.18-4.86 4.859-4.86h3.32a.732.732 0 100-1.464h-3.32A6.33 6.33 0 000 6.324v37.352A6.33 6.33 0 006.324 50h26.135a.732.732 0 100-1.465H6.324a4.864 4.864 0 01-4.86-4.858V12.268h47.071v31.407c0 2.68-2.18 4.86-4.859 4.86h-7.799a.732.732 0 100 1.464h7.8A6.33 6.33 0 0050 43.676V6.324A6.33 6.33 0 0043.676 0z"/><path d="M34.168 25.626a.732.732 0 00.732-.732c-.114-1.476.38-2.996-.85-4.573-.293-.379-2.9-2.943-3.047-3.068a4.86 4.86 0 00-3.15-1.148c-10.352.002-9.8-.012-9.996.02a1.58 1.58 0 00-1.33 1.558v16.596c0 .87.707 1.578 1.578 1.578h5.697v1.88l-.022-.02a2.037 2.037 0 00-1.45-.601c-1.81 0-2.746 2.205-1.45 3.5l2.806 2.807a3.065 3.065 0 004.333 0l2.807-2.806c1.29-1.29.366-3.501-1.45-3.501-.548 0-1.064.213-1.45.6l-.023.022v-1.881h5.419a1.58 1.58 0 001.578-1.578v-5.967a.732.732 0 10-1.465 0c-.05 6.062.107 6.08-.113 6.08h-5.419V32.45c0-1.131-.92-2.051-2.05-2.051-1.131 0-2.051.92-2.051 2.05v1.944c-5.77-.05-5.811.107-5.811-.114.035-17.625-.096-16.692.114-16.708 3.863 0 9.73-.002 9.865.002.246.524.174.653.178 3.485a1.9 1.9 0 001.67 1.884c.386.046 3.357-.007 3.617.024v1.929c0 .405.328.732.733.732zm-8.901 13.88V32.45a.587.587 0 011.172 0v7.057c0 .65.788.98 1.25.518l1.272-1.272a.587.587 0 011 .414c0 .428-.153.315-2.977 3.221a1.6 1.6 0 01-2.262 0l-2.806-2.806a.587.587 0 01.414-1c.411 0 .46.285 1.686 1.443a.733.733 0 001.25-.518zm4.71-18.022a.433.433 0 01-.363-.427c-.003-2.973.008-2.79-.015-3.008.527.31.562.408 3.088 2.934.155.156.285.327.39.507-3.3 0-3.02.005-3.1-.006z"/></symbol><symbol viewBox="0 0 48 50" id="pattern" xmlns="http://www.w3.org/2000/svg"><path d="M47.128 2.434h-9.961V.732A.732.732 0 0036.434 0H11.217a.732.732 0 00-.732.732v1.702H.872a.74.74 0 00-.733.732v19.22c0 .404.328.732.733.732h9.613v5.347c0 .405.328.733.732.733h2.236c-.144.276-.24.582-.278.908l-.963 8.338c-.027.236-.04.475-.038.706 0 1.88.956 3.428 2.34 4.619l2.438 2.1v3.399c0 .404.328.732.732.732h2.254a.732.732 0 100-1.465h-1.521v-3.003a.733.733 0 00-.255-.555l-2.405-2.07c-1.175-1.012-2.088-2.12-2.118-3.769a4.345 4.345 0 01.029-.526l.963-8.338a1.164 1.164 0 011.157-1.03c.388 0 .713.213.872.396.263.3.292.637.292.768v6.175a.732.732 0 001.465 0V16.736a1.165 1.165 0 012.328-.005v9.276c0 1.118 1.472 1.116 1.47.009 0-.16 0-.627.003-.749.131-1.49 2.629-1.454 2.629.077v1.11c0 .944 1.464.944 1.464 0 0-.644.523-1.167 1.166-1.167.728 0 1.466.316 1.466 1.166v.722c0 .935 1.448.95 1.464.013.003-.153.011-.187.038-.3.294-1.146 1.991-1.152 2.29-.005l.903 3.48a14.741 14.741 0 01-.076 7.679l-2.048 7.292a.728.728 0 00-.027.198v3.003h-8.043a.732.732 0 100 1.465h8.775a.732.732 0 00.733-.732v-3.635l2.02-7.195c.773-2.754.802-5.673.084-8.443l-.207-.797h1.586a.732.732 0 00.732-.733V6.869h9.23v14.784h-6.52a.732.732 0 000 1.465h7.252a.732.732 0 00.732-.733V3.166a.733.733 0 00-.733-.732zM1.604 3.899h8.88v1.505h-8.88V3.9zM11.95 1.465h23.752v3.94H11.95v-3.94zM1.604 21.653V6.869h8.88v14.784h-8.88zm32.864 6.08l-.316-1.219c-.463-1.78-2.664-2.55-4.143-1.454-.801-1.279-2.68-1.63-3.941-.827-.654-1.405-2.5-1.926-3.858-1.242v-5.523h6.662a.71.71 0 01.71.71v1.407a.71.71 0 01-.71.71h-4.009a.732.732 0 100 1.464h4.01a2.176 2.176 0 002.173-2.174v-1.407a2.176 2.176 0 00-2.174-2.174h-6.767a2.633 2.633 0 00-2.524-1.897 2.632 2.632 0 00-2.63 2.63v10.996H11.95V6.869h23.752v20.864h-1.234zm2.699-22.329V3.9h9.229v1.505h-9.23z"/><path d="M28.072 2.738H19.58a.732.732 0 100 1.465h8.493a.732.732 0 000-1.465zm-7.263 5.537h-5.783a.732.732 0 00-.733.732v3.345c0 .405.328.733.733.733h5.783a.732.732 0 00.732-.733V9.007a.732.732 0 00-.732-.732zm-.733 3.345h-4.318V9.74h4.318v1.88zm19.291.56h4.35a.732.732 0 000-1.464h-4.35a.732.732 0 100 1.464zm4.351 3.151a.732.732 0 100-1.465h-4.351a.732.732 0 100 1.465h4.35zM3.828 12.18h4.35a.732.732 0 000-1.464h-4.35a.732.732 0 100 1.464zm4.351 1.686h-4.35a.732.732 0 100 1.465h4.35a.732.732 0 100-1.465zm24.04-3.919h-7.77a.732.732 0 100 1.465h7.77a.732.732 0 100-1.465z"/></symbol><symbol viewBox="0 0 50 50" id="picture" xmlns="http://www.w3.org/2000/svg"><path d="M46.914 6.092a3.05 3.05 0 003.046-3.046A3.05 3.05 0 0046.914 0a3.05 3.05 0 00-3.046 3.046 3.05 3.05 0 003.046 3.046zm0-4.63a1.585 1.585 0 010 3.168c-.873 0-1.584-.71-1.584-1.584 0-.873.71-1.584 1.584-1.584zM10.463 46.296h-2.42a.731.731 0 100 1.462h2.42a.73.73 0 100-1.462zm18.872 0h-2.42a.731.731 0 100 1.462h2.42a.73.73 0 100-1.462zm-12.582 0h-2.42a.731.731 0 100 1.462h2.42a.73.73 0 100-1.462zm6.291 0h-2.42a.731.731 0 100 1.462h2.42a.73.73 0 100-1.462zm18.873 0h-2.42a.731.731 0 100 1.462h2.42a.73.73 0 100-1.462zm-6.29 0h-2.42a.731.731 0 100 1.462h2.42a.73.73 0 100-1.462zM3.684 26.936a.731.731 0 10-1.462 0v2.42a.73.73 0 101.462 0v-2.42zm0-6.291a.731.731 0 10-1.462 0v2.42a.731.731 0 101.462 0v-2.42zm0 12.582a.731.731 0 10-1.462 0v2.42a.731.731 0 101.462 0v-2.42zm-.731 5.56a.731.731 0 00-.73.73v2.42a.731.731 0 101.461 0v-2.42a.731.731 0 00-.73-.73zm.731-30.724a.731.731 0 10-1.462 0v2.42a.731.731 0 101.462 0v-2.42zm0 6.291a.73.73 0 10-1.462 0v2.42a.731.731 0 101.462 0v-2.42zm10.65-10.65h2.42a.731.731 0 100-1.462h-2.42a.731.731 0 100 1.462zm25.164 0h2.42a.731.731 0 100-1.462h-2.42a.731.731 0 100 1.462zm-18.873 0h2.42a.73.73 0 100-1.462h-2.42a.731.731 0 100 1.462zm6.291 0h2.42a.731.731 0 100-1.462h-2.42a.731.731 0 100 1.462zm6.291 0h2.42a.731.731 0 100-1.462h-2.42a.73.73 0 100 1.462zm-25.164 0h2.42a.73.73 0 100-1.462h-2.42a.73.73 0 100 1.462zm39.695 23.232a.731.731 0 10-1.462 0v2.42a.73.73 0 101.462 0v-2.42zm0-6.291a.731.731 0 10-1.462 0v2.42a.731.731 0 101.462 0v-2.42zm-.731 18.142a.731.731 0 00-.73.73v2.42a.731.731 0 101.461 0v-2.42a.731.731 0 00-.73-.73zm.731-5.56a.731.731 0 10-1.462 0v2.42a.731.731 0 101.462 0v-2.42zm0-18.873a.73.73 0 10-1.462 0v2.42a.731.731 0 101.462 0v-2.42zm0-6.291a.731.731 0 10-1.462 0v2.42a.731.731 0 101.462 0v-2.42zM3.046 6.092a3.05 3.05 0 003.046-3.046A3.05 3.05 0 003.046 0 3.05 3.05 0 000 3.046a3.05 3.05 0 003.046 3.046zm0-4.63a1.585 1.585 0 010 3.168c-.873 0-1.584-.71-1.584-1.584 0-.873.71-1.584 1.584-1.584zm43.868 42.446a3.05 3.05 0 00-3.046 3.046A3.05 3.05 0 0046.914 50a3.05 3.05 0 003.046-3.046 3.05 3.05 0 00-3.046-3.046zm0 4.63c-.873 0-1.584-.71-1.584-1.584a1.585 1.585 0 111.584 1.584zm-43.868-4.63A3.05 3.05 0 000 46.954 3.05 3.05 0 003.046 50a3.05 3.05 0 003.046-3.046 3.05 3.05 0 00-3.046-3.046zm0 4.63a1.585 1.585 0 111.584-1.584c0 .873-.71 1.584-1.584 1.584zM44.273 9.112a2.598 2.598 0 00-2.596-2.596H8.284a2.598 2.598 0 00-2.596 2.596v2.587a.731.731 0 101.462 0V9.112c0-.625.509-1.134 1.134-1.134h33.395c.625 0 1.133.509 1.133 1.134v18.186L39.75 25.37a.731.731 0 00-.78 1.237l3.842 2.419v11.863c0 .625-.508 1.133-1.133 1.133h-5.632v-5.684c0-1.588-.75-3.114-2.006-4.084l-7.618-5.879 4.911-2.805a2.824 2.824 0 012.912.062l1.833 1.155a.731.731 0 00.78-1.238l-1.834-1.154a4.283 4.283 0 00-4.416-.095l-5.44 3.108-6.526-5.038a4.29 4.29 0 00-4.697-.36L7.15 23.762v-8.606a.731.731 0 10-1.462 0V40.89a2.598 2.598 0 002.596 2.595h33.395a2.598 2.598 0 002.595-2.595V9.112zm-9.689 32.91H8.283a1.135 1.135 0 01-1.134-1.133V25.43l7.503-4.141a2.828 2.828 0 013.096.237L33.147 33.41a3.72 3.72 0 011.437 2.926v5.685z"/><path d="M34.973 18.933a4.392 4.392 0 004.387-4.387 4.392 4.392 0 00-4.387-4.387 4.392 4.392 0 00-4.387 4.387 4.392 4.392 0 004.387 4.387zm0-7.312a2.928 2.928 0 012.925 2.925 2.928 2.928 0 01-2.925 2.925 2.928 2.928 0 01-2.925-2.925 2.928 2.928 0 012.925-2.925z"/></symbol><symbol viewBox="0 0 14 19" id="rodina" xmlns="http://www.w3.org/2000/svg"><path fill-rule="evenodd" clip-rule="evenodd" d="M7.424 0C2.489 0 .001 3.522.001 6.46c0 1.778.676 3.36 2.127 3.95.238.097.451.003.52-.259.048-.181.162-.639.212-.83.07-.259.043-.35-.149-.576-.419-.491-.686-1.127-.686-2.028 0-2.613 1.964-4.952 5.114-4.952 2.789 0 4.321 1.697 4.321 3.962 0 2.982-1.325 5.498-3.293 5.498-1.086 0-1.899-.895-1.639-1.992.313-1.309.917-2.723.917-3.669 0-.846-.456-1.552-1.401-1.552-1.11 0-2.002 1.144-2.002 2.676 0 .977.331 1.637.331 1.637l-1.336 5.634c-.397 1.672-.059 3.722-.031 3.93.017.122.175.151.247.059.102-.134 1.425-1.759 1.875-3.384.127-.46.73-2.842.73-2.842.361.685 1.416 1.289 2.537 1.289 3.339 0 5.604-3.031 5.604-7.087C13.999 2.857 11.39 0 7.424 0z"/></symbol><symbol viewBox="0 0 58 50" id="stars" xmlns="http://www.w3.org/2000/svg"><path d="M56.438 17.107l-2.913-2.518a.865.865 0 10-1.132 1.31l2.913 2.518a2.492 2.492 0 01.256 3.51L36.64 43.825a.865.865 0 001.31 1.132l18.92-21.898a4.225 4.225 0 00-.433-5.952zm-5.129-4.432L37.832 1.027A4.195 4.195 0 0034.766.011a4.192 4.192 0 00-2.886 1.45l-1.285 1.486a.865.865 0 101.31 1.131l1.284-1.486a2.473 2.473 0 011.703-.855 2.471 2.471 0 011.808.6l13.477 11.647a.862.862 0 001.22-.089.866.866 0 00-.088-1.22z"/><path d="M43.094 9.616L19.78 1.796a4.224 4.224 0 00-5.343 2.658l-.307.917a.865.865 0 001.64.55l.308-.916a2.492 2.492 0 013.152-1.569l23.315 7.82a2.492 2.492 0 011.569 3.152L33.265 46.751a.865.865 0 001.64.55l10.849-32.343a4.225 4.225 0 00-2.66-5.342z"/><path d="M28.812 7.446H4.22A4.225 4.225 0 000 11.666V45.78A4.225 4.225 0 004.22 50h24.592a4.225 4.225 0 004.22-4.22V11.666a4.225 4.225 0 00-4.22-4.22zm2.49 38.334a2.492 2.492 0 01-2.49 2.49H4.22a2.492 2.492 0 01-2.49-2.49V11.666a2.492 2.492 0 012.49-2.49h24.592a2.492 2.492 0 012.49 2.49V45.78z"/><path d="M29.262 31.328H3.77a.865.865 0 000 1.73h25.493a.865.865 0 100-1.73zm-4.033 4.948H14.514a.865.865 0 100 1.73h10.715a.865.865 0 000-1.73zm-13.599 0H7.803a.865.865 0 000 1.73h3.827a.865.865 0 000-1.73zm13.599 3.308H7.803a.865.865 0 000 1.73H25.23a.865.865 0 000-1.73zm0 3.307H7.803a.865.865 0 000 1.73H25.23a.865.865 0 000-1.73zm.797-25.405a.865.865 0 00-.698-.589l-5.553-.806-2.483-5.032a.865.865 0 00-1.552 0l-2.483 5.031-5.553.807a.865.865 0 00-.48 1.476l4.019 3.916-.949 5.53a.865.865 0 001.256.913l4.966-2.611 4.966 2.61a.865.865 0 001.256-.911l-.949-5.53 4.018-3.917a.865.865 0 00.219-.887zm-5.77 3.882a.865.865 0 00-.25.766l.73 4.25-3.817-2.007a.865.865 0 00-.806 0l-3.817 2.007.73-4.25a.865.865 0 00-.25-.766l-3.088-3.01 4.268-.62a.865.865 0 00.651-.474l1.909-3.867 1.908 3.867c.126.255.37.433.652.473l4.268.62-3.088 3.01z"/></symbol><symbol viewBox="0 0 22 17" id="twitter" xmlns="http://www.w3.org/2000/svg"><path fill-rule="evenodd" clip-rule="evenodd" d="M21.008 1.896a9.062 9.062 0 01-2.475.635c.89-.5 1.573-1.292 1.895-2.234a9.05 9.05 0 01-2.738.98A4.437 4.437 0 0014.545.001c-2.38 0-4.311 1.809-4.311 4.039 0 .317.038.626.112.921-3.582-.169-6.758-1.777-8.884-4.22a3.829 3.829 0 00-.583 2.031c0 1.4.761 2.638 1.917 3.362a4.527 4.527 0 01-1.952-.506v.052c0 1.957 1.485 3.589 3.457 3.96a4.696 4.696 0 01-1.946.07c.548 1.603 2.14 2.772 4.026 2.805a9.023 9.023 0 01-5.353 1.728c-.348 0-.691-.019-1.028-.056a12.81 12.81 0 006.607 1.815c7.928 0 12.263-6.156 12.263-11.493 0-.176-.005-.349-.013-.523a8.503 8.503 0 002.151-2.09z"/></symbol><symbol viewBox="0 0 49 50" id="windows" xmlns="http://www.w3.org/2000/svg"><path d="M48.064 42.206a.732.732 0 00.732-.733V21.55c0-.929-.756-1.685-1.685-1.685h-1.14V10.88c0-.867-.705-1.571-1.572-1.571h-.917V1.47c0-.811-.66-1.471-1.47-1.471H6.784c-.812 0-1.471.66-1.471 1.471v7.838h-.918c-.866 0-1.57.704-1.57 1.57v8.986h-1.14c-.93 0-1.685.757-1.685 1.685v26.765C0 49.245.756 50 1.685 50h45.426c.929 0 1.685-.756 1.685-1.685v-3.652a.733.733 0 00-1.465 0v3.652a.22.22 0 01-.22.22H1.685a.22.22 0 01-.22-.22V28.146H47.33v13.327c0 .405.328.733.733.733zM42.017 1.47v3.815H6.782l.003-3.821 35.232.006zm-37.62 9.303h14.121a.733.733 0 000-1.465H6.78l.002-2.559h35.236V9.31h-20.31a.732.732 0 100 1.465H44.4c.059 0 .106.047.106.106v4.43H4.29v-4.43c0-.059.048-.107.107-.107zM1.465 26.68v-5.13c0-.12.099-.22.22-.22h26.061a.732.732 0 100-1.465H4.29v-3.09h40.216v3.09h-13.57a.732.732 0 100 1.465H47.11a.22.22 0 01.22.22v5.131H1.465z"/><path d="M38.08 22.44h-1.715a.732.732 0 100 1.465h1.715a.732.732 0 100-1.465zm0 1.778h-1.715a.732.732 0 100 1.465h1.715a.732.732 0 100-1.465zm5.188-1.448a.733.733 0 00-1.036 0l-.189.188-.188-.188a.732.732 0 10-1.036 1.035l.188.189-.188.188a.732.732 0 101.036 1.036l.188-.189.189.19a.73.73 0 001.036 0 .733.733 0 000-1.037l-.19-.188.19-.19a.733.733 0 000-1.035zm-4.348-8.591a.73.73 0 001.036 0l.1-.101.102.1a.729.729 0 001.036 0 .732.732 0 000-1.035l-.102-.101.102-.101a.733.733 0 10-1.036-1.036l-.101.101-.101-.1a.733.733 0 00-1.036 1.035l.101.1-.101.102a.733.733 0 000 1.036zm-2.86-9.792a.73.73 0 001.012.021.73.73 0 001.034-1.033.732.732 0 00-1.034-1.033.732.732 0 00-1.033 1.033.732.732 0 00.021 1.012zM8.336 13.774h7.103a.733.733 0 000-1.464H8.336a.732.732 0 100 1.464zm2.798-9.667h7.103a.732.732 0 100-1.464h-7.103a.732.732 0 100 1.464zm2.056 19.326H6.087a.732.732 0 100 1.465h7.103a.733.733 0 000-1.465zm-3.363 7.141a3.403 3.403 0 00-3.399 3.4 3.403 3.403 0 003.4 3.398 3.403 3.403 0 003.398-3.398c0-1.875-1.525-3.4-3.399-3.4zm0 5.333a1.937 1.937 0 01-1.934-1.934c0-1.066.868-1.934 1.934-1.934 1.067 0 1.934.868 1.934 1.934a1.937 1.937 0 01-1.934 1.934zm0 3.115a3.403 3.403 0 00-3.399 3.399c0 1.874 1.525 3.4 3.4 3.4a3.403 3.403 0 003.398-3.4 3.403 3.403 0 00-3.399-3.399zm0 5.333a1.937 1.937 0 01-1.934-1.934c0-1.066.868-1.934 1.934-1.934 1.067 0 1.934.868 1.934 1.934a1.937 1.937 0 01-1.934 1.934zm6.571-11.149h2.572a.732.732 0 000-1.465h-2.572a.733.733 0 000 1.465zm20.38.775h-20.38a.732.732 0 100 1.465h20.38a.732.732 0 100-1.465zm-20.38 8.052h2.572a.732.732 0 100-1.465h-2.572a.733.733 0 000 1.465zm0 2.24h20.38a.733.733 0 000-1.464h-20.38a.732.732 0 100 1.464z"/></symbol></svg>