<svg width="57" height="50" fill="none" xmlns="http://www.w3.org/2000/svg"><path d="M53.791 50H33.636a2.475 2.475 0 01-2.472-2.472V40.11H2.473A2.475 2.475 0 010 37.637V10.824a.824.824 0 111.648 0v24.34h27.043a.824.824 0 110 1.65H1.648v.823c0 .455.37.825.825.825h28.69V25.714H7.244a2.475 2.475 0 01-2.473-2.472v-7.473a2.475 2.475 0 012.473-2.472H28.69a.824.824 0 110 1.648H7.243a.825.825 0 00-.824.824v7.473c0 .454.37.824.824.824h23.92V12.473A2.475 2.475 0 0133.637 10h14.386V8.352H.824A.824.824 0 010 7.527V2.473A2.475 2.475 0 012.473 0h36.373a.824.824 0 010 1.648H2.473a.825.825 0 00-.825.825v4.23h49.67v-4.23a.825.825 0 00-.823-.825h-8.352a.824.824 0 110-1.648h8.352a2.475 2.475 0 012.472 2.473V10h.824a2.475 2.475 0 012.473 2.473v35.055A2.475 2.475 0 0153.79 50zm-20.979-3.297v.825c0 .454.37.824.824.824h20.155c.455 0 .824-.37.824-.824v-.825H32.812zm0-1.648h21.803v-30.11H32.812v30.11zm0-31.758h21.803v-.825a.825.825 0 00-.824-.824H33.636a.825.825 0 00-.824.825v.824zM49.67 10h1.649V8.352H49.67V10zm-5.956 30.11c-5.103 0-9.254-4.151-9.254-9.253 0-5.103 4.151-9.254 9.254-9.254 1.754 0 3.46.493 4.937 1.426a.824.824 0 01-.88 1.394 7.58 7.58 0 00-4.057-1.171c-4.194 0-7.605 3.411-7.605 7.605 0 4.193 3.411 7.605 7.605 7.605 4.193 0 7.605-3.412 7.605-7.605a7.57 7.57 0 00-.821-3.442l-6.856 6.856a.824.824 0 01-1.166 0l-4.035-4.036a.824.824 0 111.165-1.165l3.453 3.452 7.013-7.012.014-.015 1.474-1.474a.824.824 0 011.165 1.166l-1.013 1.014a9.204 9.204 0 011.255 4.656c0 5.102-4.151 9.253-9.253 9.253zm-18.02-7.648a.824.824 0 01-.583-1.407l.396-.396h-9.692a.824.824 0 110-1.648h9.692l-.395-.395a.824.824 0 111.165-1.166l1.802 1.802a.824.824 0 010 1.166l-1.802 1.802a.821.821 0 01-.582.242zm.79-9.819a.824.824 0 01-.825-.824v-.886l-.767.443a.824.824 0 01-.824-1.427l.767-.444-.767-.443a.824.824 0 11.824-1.427l.767.443v-.886a.824.824 0 111.649 0v.886l.767-.443a.824.824 0 01.824 1.427l-.767.444.767.443a.824.824 0 11-.824 1.427l-.767-.443v.886a.824.824 0 01-.825.824zm-7.693 0a.824.824 0 01-.824-.824v-.886l-.767.443a.824.824 0 01-.825-1.427l.768-.444-.768-.443a.824.824 0 01.825-1.427l.767.443v-.886a.824.824 0 111.648 0v.886l.768-.443a.824.824 0 01.824 1.427l-.767.444.767.443a.824.824 0 11-.824 1.427l-.768-.443v.886a.824.824 0 01-.824.824zm-7.692 0a.824.824 0 01-.824-.824v-.886l-.768.443a.824.824 0 01-.824-1.427l.768-.444-.768-.443a.824.824 0 01.824-1.427l.768.443v-.886a.824.824 0 111.648 0v.886l.767-.443a.824.824 0 01.825 1.427l-.768.444.768.443a.824.824 0 11-.825 1.427l-.767-.443v.886a.824.824 0 01-.824.824zM48.79 5.055a.88.88 0 010-1.758.88.88 0 010 1.758zm-3.296 0a.88.88 0 010-1.758.88.88 0 010 1.758zm-3.297 0a.88.88 0 010-1.758.88.88 0 010 1.758z" fill="#005CE6"/></svg>