<svg width="48" height="50" fill="none" xmlns="http://www.w3.org/2000/svg"><path d="M46.4 1.034a3.54 3.54 0 00-5 0 3.54 3.54 0 00-.475 4.408L39.07 7.297c-1.9-1.497-4.622-1.899-7.765-1.127-3.334.82-6.777 2.877-9.694 5.794-2.917 2.918-4.975 6.36-5.794 9.695-.765 3.111-.378 5.81 1.082 7.707a10.058 10.058 0 01-7.66 2.045 8.08 8.08 0 00-7.024 2.412A8.016 8.016 0 000 39.383c0 2.089.787 4.064 2.216 5.561a8.003 8.003 0 005.837 2.5c.83 0 1.641-.126 2.411-.367l-1.246 1.728a.754.754 0 101.224.882l3.386-4.696.008-.011a.885.885 0 00.025-.04l.015-.024a.688.688 0 00.02-.04l.013-.029a.682.682 0 00.015-.038l.012-.032a.787.787 0 00.018-.072.202.202 0 00.006-.034l.006-.038.003-.035a.767.767 0 00-.005-.147l-.005-.032a.748.748 0 00-.069-.207c-.005-.012-.012-.023-.018-.034l-.019-.032-.02-.029a.665.665 0 00-.074-.09l-.01-.01c-.004-.006-.01-.01-.014-.014a.707.707 0 00-.062-.053l-.015-.012-.012-.008a.832.832 0 00-.038-.024l-.026-.016a.824.824 0 00-.039-.02l-.03-.013a.792.792 0 00-.105-.036l-.036-.009a.67.67 0 00-.035-.006L13.3 43.8l-.036-.003-.035-.002h-.039l-.033.002-.04.005-.03.004a.87.87 0 00-.043.01.76.76 0 00-.07.02.718.718 0 00-.067.026l-.028.013a.783.783 0 00-.066.037l-.03.02a.735.735 0 00-.089.073l-.011.01a6.515 6.515 0 01-4.71 1.919 6.506 6.506 0 01-4.667-2.032 6.513 6.513 0 01-1.798-4.52c0-1.698.639-3.303 1.798-4.52a6.57 6.57 0 015.712-1.96 11.39 11.39 0 001.666.123c2.632 0 5.215-.912 7.275-2.577 1.274 1.026 2.927 1.55 4.834 1.55.937 0 1.936-.126 2.981-.383 3.335-.82 6.778-2.877 9.695-5.794 2.917-2.917 4.975-6.36 5.794-9.695.772-3.142.37-5.865-1.126-7.764L41.99 6.51c.58.372 1.244.558 1.909.558.905 0 1.81-.344 2.5-1.034a3.539 3.539 0 000-5zM30.457 27.93l-6.302-6.302a.754.754 0 10-1.067 1.066l6.021 6.021c-1.226.648-2.47 1.135-3.694 1.435-2.937.722-5.388.285-6.903-1.23-1.514-1.514-1.951-3.965-1.23-6.902.301-1.225.787-2.469 1.435-3.695l1.397 1.397a.754.754 0 001.066-1.067l-1.677-1.677a22.14 22.14 0 011.57-2.171L32.627 26.36a22.43 22.43 0 01-2.171 1.57zm6.397-6.05l-6.502-6.501a.754.754 0 00-1.067 1.066l6.64 6.639a24.134 24.134 0 01-2.157 2.283L22.066 13.666a24.109 24.109 0 012.283-2.157l1.975 1.976a.754.754 0 001.067-1.066l-1.838-1.839c.75-.54 1.519-1.022 2.298-1.442l10.444 10.445a20.87 20.87 0 01-1.441 2.298zm2.945-6.114a15.334 15.334 0 01-.806 2.38L29.286 8.44a15.386 15.386 0 012.38-.806 11.02 11.02 0 012.616-.34c1.772 0 3.25.532 4.287 1.57 1.514 1.514 1.951 3.966 1.23 6.902zm5.534-10.8a2.03 2.03 0 01-2.866 0 2.03 2.03 0 010-2.867 2.02 2.02 0 011.433-.592 2.02 2.02 0 011.433.592c.79.79.79 2.077 0 2.867z" fill="#005CE6"/></svg>