<svg width="50" height="50" fill="none" xmlns="http://www.w3.org/2000/svg"><path d="M47.974 9.66H41.99a.728.728 0 000 1.456h5.984a.57.57 0 01.57.57V24.86a.57.57 0 01-.57.57H2.026a.57.57 0 01-.57-.57V11.686a.57.57 0 01.57-.57h36.86a.728.728 0 100-1.456H2.026A2.028 2.028 0 000 11.686V24.86c0 1.118.909 2.027 2.026 2.027h45.948A2.028 2.028 0 0050 24.86V11.686a2.028 2.028 0 00-2.026-2.026z" fill="#005CE6"/><path d="M6.28 15.562a.728.728 0 00-.956.384 5.937 5.937 0 005.455 8.258c3.27 0 5.93-2.66 5.93-5.93 0-3.27-2.66-5.93-5.93-5.93-1.12 0-2.212.315-3.158.911a.728.728 0 00.777 1.232 4.459 4.459 0 012.382-.687 4.479 4.479 0 014.473 4.473 4.479 4.479 0 01-4.473 4.474 4.479 4.479 0 01-4.116-6.229.728.728 0 00-.384-.956zM2.602 8.203a.728.728 0 00.728-.728V2.026a.57.57 0 01.57-.57h42.2a.57.57 0 01.57.57v5.45a.728.728 0 101.456 0v-5.45A2.028 2.028 0 0046.1 0H3.9a2.028 2.028 0 00-2.026 2.026v5.45c0 .401.325.727.728.727z" fill="#005CE6"/><path d="M11.878 2.477a5.518 5.518 0 00-5.495 4.918.728.728 0 001.448.16 4.064 4.064 0 014.047-3.622c2.08 0 3.82 1.557 4.046 3.622a.728.728 0 001.448-.16 5.518 5.518 0 00-5.494-4.918zm35.52 25.867a.728.728 0 00-.728.729v5.448a.57.57 0 01-.57.57H3.9a.57.57 0 01-.57-.57v-5.448a.728.728 0 10-1.457 0v5.448c0 1.118.91 2.026 2.027 2.026h42.2a2.028 2.028 0 002.027-2.026v-5.448a.728.728 0 00-.729-.729z" fill="#005CE6"/><path d="M11.878 34.07a5.518 5.518 0 005.494-4.918.728.728 0 00-1.448-.16 4.064 4.064 0 01-4.046 3.622 4.064 4.064 0 01-4.047-3.621.728.728 0 00-1.448.16 5.518 5.518 0 005.495 4.918zm32.774 3.934a.728.728 0 00-.729.729v3.45a.57.57 0 01-.57.569h-14.78a.728.728 0 100 1.456h14.78a2.028 2.028 0 002.027-2.026v-3.45a.728.728 0 00-.728-.728zM26.197 43.48a.728.728 0 00-.728-.728H6.646a.57.57 0 01-.57-.57v-3.45a.728.728 0 00-1.456 0v3.45a2.03 2.03 0 002.026 2.026H25.47a.728.728 0 00.728-.728z" fill="#005CE6"/><path d="M13.487 41.796a4.15 4.15 0 003.832-2.542.728.728 0 00-1.342-.566 2.699 2.699 0 01-2.49 1.652 2.698 2.698 0 01-2.491-1.652.728.728 0 10-1.342.566 4.152 4.152 0 003.833 2.542zm27.909 3.869a.728.728 0 00-.728.728v1.305a.57.57 0 01-.57.57H9.902a.57.57 0 01-.57-.57v-1.305a.728.728 0 00-1.456 0v1.305a2.03 2.03 0 002.026 2.026H40.1a2.028 2.028 0 002.026-2.026v-1.305a.728.728 0 00-.729-.728z" fill="#005CE6"/><path d="M16.23 45.718a2.225 2.225 0 01-1.673 0 .728.728 0 10-.55 1.349c.442.18.908.272 1.387.272a3.65 3.65 0 001.387-.272.728.728 0 10-.551-1.349zm4.358-28.752h.956a.728.728 0 000-1.456h-.956a.728.728 0 100 1.456zm24.12-1.456H25a.728.728 0 100 1.456h19.708a.728.728 0 100-1.456zm-24.12 5.819h24.12a.728.728 0 100-1.457h-24.12a.728.728 0 100 1.457zm0-16.717a.728.728 0 000 1.456h22.937a.728.728 0 100-1.456H20.588zm22.937 27.324a.728.728 0 100-1.456H20.588a.728.728 0 100 1.456h22.937zm-2.788 8.721a.728.728 0 100-1.456h-20.15a.728.728 0 100 1.456h20.15zM19.86 46.235c0 .402.325.728.728.728h16.748a.728.728 0 100-1.456H20.588a.728.728 0 00-.729.728z" fill="#005CE6"/></svg>