<svg width="50" height="50" fill="none" xmlns="http://www.w3.org/2000/svg"><path d="M9.57 3.76a.684.684 0 100-1.367.684.684 0 000 1.367zm2.881.049a.684.684 0 100-1.368.684.684 0 000 1.368zm2.881.048a.684.684 0 100-1.367.684.684 0 000 1.367z" fill="#005CE6"/><path d="M42.092 0H7.908c-.995 0-1.804.81-1.804 1.805v18.558c0 .995.81 1.805 1.804 1.805h16.945v2.49a.732.732 0 101.465 0v-9.814c0-1.131-.92-2.051-2.05-2.051-1.131 0-2.051.92-2.051 2.05v2.345a.587.587 0 01-1.172 0V6.152h18.164V9.62a.732.732 0 101.465 0V6.152h1.758v14.211a.34.34 0 01-.34.34h-1.418V12.55a.732.732 0 10-1.465 0v10.889a.587.587 0 01-1.172 0v-3.516c0-1.13-.92-2.05-2.05-2.05-1.132 0-2.052.92-2.052 2.05v10.644H29.89a.733.733 0 00-.668.43l-.292.645-.4-.704a.732.732 0 00-.636-.37h-1.576v-2.98a.732.732 0 00-1.465 0v2.98h-.048a.732.732 0 00-.733.732v8.684a3.478 3.478 0 003.32 3.47v3.861A2.689 2.689 0 0030.079 50a2.689 2.689 0 002.686-2.685v-3.861a3.478 3.478 0 003.32-3.47v-8.685a.732.732 0 00-.684-.73v-8.401h1.172v1.27c0 1.13.92 2.05 2.051 2.05 1.13 0 2.05-.92 2.05-2.05v-1.27h1.419c.995 0 1.805-.81 1.805-1.805V1.805A1.809 1.809 0 0042.092 0zM21.63 19.238c1.13 0 2.05-.92 2.05-2.05v-2.344a.587.587 0 011.172 0v5.86H7.909a.34.34 0 01-.34-.34V6.151H19.58v11.035c0 1.131.92 2.051 2.05 2.051zm20.8-14.55H7.569V1.804a.34.34 0 01.34-.34h34.184a.34.34 0 01.34.34v2.883zm-7.81 35.295a2.011 2.011 0 01-2.009 2.01h-.579a.732.732 0 00-.732.732v4.59a1.222 1.222 0 01-2.442 0v-4.59a.732.732 0 00-.732-.733h-.579a2.011 2.011 0 01-2.009-2.009v-.92h9.082v.92zm0-2.385h-9.082V32.03h1.93l.9 1.583a.734.734 0 001.304-.06l.69-1.523h4.258v5.567zm1.953-16.895H35.4v-.781a.587.587 0 011.172 0v.781z" fill="#005CE6"/><path d="M30.078 47.559a.635.635 0 100-1.27.635.635 0 000 1.27zM17.48 7.861H9.62a.732.732 0 100 1.465h7.86a.732.732 0 100-1.465zm-7.86 4.688h1.513a.732.732 0 100-1.465H9.619a.732.732 0 100 1.465zm7.86-1.465h-3.906a.732.732 0 100 1.465h3.906a.732.732 0 100-1.465zm-7.86 4.687h3.954a.732.732 0 100-1.464H9.62a.732.732 0 000 1.464zm7.86 1.759H9.62a.732.732 0 100 1.464h7.86a.732.732 0 100-1.465zm0-3.175h-1.562a.732.732 0 100 1.465h1.563a.732.732 0 100-1.465z" fill="#005CE6"/></svg>