<svg width="23" height="30" fill="none" xmlns="http://www.w3.org/2000/svg"><path d="M22.934 17.565c-.35-4.475-2.48-7.278-4.359-9.753-1.74-2.29-3.242-4.268-3.242-7.186a.624.624 0 00-.347-.556.645.645 0 00-.663.048C11.5 2.093 9.147 5.42 8.325 8.598c-.57 2.21-.646 4.696-.657 6.338-2.606-.544-3.196-4.357-3.202-4.399a.629.629 0 00-.333-.463.649.649 0 00-.579-.01c-.136.064-3.353 1.663-3.54 8.047C0 18.324 0 18.537 0 18.75c0 6.202 5.16 11.249 11.5 11.249.009 0 .018.002.026 0h.008C17.859 29.981 23 24.941 23 18.749c0-.311-.066-1.184-.066-1.184zM11.5 28.749c-2.114 0-3.833-1.792-3.833-3.994 0-.075 0-.151.005-.244.025-.929.206-1.563.403-1.985.371.78 1.034 1.495 2.11 1.495.353 0 .639-.28.639-.625 0-.89.018-1.916.245-2.843.201-.821.683-1.695 1.293-2.396.272.91.8 1.646 1.317 2.364.74 1.028 1.504 2.09 1.638 3.902.008.108.017.216.017.332 0 2.202-1.72 3.994-3.834 3.994z" fill="#000"/></svg>