<svg width="171" height="41" fill="none" xmlns="http://www.w3.org/2000/svg"><path d="M11.774 41H22.33l6.612-23.954L35.554 41H46.11L57.304.4H47.56l-7.018 28.42L32.712.4h-7.54l-7.83 28.42L10.324.4H.58L11.774 41zm75.98 0h10.15L84.102.4H72.268L58.464 41h10.15l2.03-6.38h15.08l2.03 6.38zM73.428 25.92l4.757-14.906L82.94 25.92h-9.51zM119.636.4h-15.37V41h9.28V28.24h6.09c8.004 0 14.21-6.206 14.21-13.92 0-7.714-6.206-13.92-14.21-13.92zm0 19.14h-6.09V9.1h6.09c2.842 0 4.93 2.262 4.93 5.22 0 2.958-2.088 5.22-4.93 5.22zM156.747.4h-15.37V41h9.28V28.24h6.09c8.004 0 14.21-6.206 14.21-13.92 0-7.714-6.206-13.92-14.21-13.92zm0 19.14h-6.09V9.1h6.09c2.842 0 4.93 2.262 4.93 5.22 0 2.958-2.088 5.22-4.93 5.22z" fill="#005CE6"/></svg>