<svg width="50" height="39" fill="none" xmlns="http://www.w3.org/2000/svg"><path d="M48.291 0H35.865a.732.732 0 100 1.465h12.426c.135 0 .244.11.244.244v4.446H1.465V1.709c0-.135.11-.244.244-.244h30.785a.732.732 0 100-1.465H1.709C.767 0 0 .767 0 1.709v34.763c0 .942.767 1.71 1.709 1.71h20.629a.732.732 0 000-1.466H1.709a.244.244 0 01-.244-.244V7.62h47.07v17.89a.732.732 0 101.465 0V1.71C50 .767 49.233 0 48.291 0z" fill="#005CE6"/><path d="M49.268 28.15a.732.732 0 00-.733.732v7.59c0 .135-.11.244-.244.244H25.709a.732.732 0 100 1.465h22.582c.942 0 1.709-.767 1.709-1.709v-7.59a.732.732 0 00-.732-.733zM4.632 3.078a.732.732 0 100 1.464h.011a.732.732 0 100-1.464h-.01zm2.211 0a.732.732 0 100 1.464h.011a.732.732 0 100-1.464h-.01zm2.212 0a.732.732 0 100 1.464h.01a.732.732 0 100-1.464h-.01zm36.313 1.464a.732.732 0 100-1.464h-1.363a.732.732 0 100 1.464h1.363zM30.685 25.085h9.029a3.367 3.367 0 003.363-3.364 3.367 3.367 0 00-3.363-3.363h-9.029a3.367 3.367 0 00-3.363 3.363 3.367 3.367 0 003.363 3.364zm10.927-3.364a1.9 1.9 0 01-1.898 1.899h-6.255a3.346 3.346 0 000-3.797h6.255a1.9 1.9 0 011.898 1.898zm-10.927-1.898a1.9 1.9 0 011.898 1.898 1.9 1.9 0 01-1.898 1.899 1.9 1.9 0 01-1.898-1.899 1.9 1.9 0 011.898-1.898zm0-3.347h9.029a3.367 3.367 0 003.363-3.364 3.367 3.367 0 00-3.363-3.363h-9.029a3.367 3.367 0 00-3.363 3.363 3.367 3.367 0 003.363 3.364zm10.927-3.364a1.9 1.9 0 01-1.898 1.899 1.9 1.9 0 01-1.898-1.899 1.9 1.9 0 011.898-1.898 1.9 1.9 0 011.898 1.898zm-10.927-1.898h6.255a3.343 3.343 0 00-.59 1.898c0 .704.218 1.358.59 1.899h-6.255a1.9 1.9 0 01-1.898-1.899 1.9 1.9 0 011.898-1.898z" fill="#005CE6"/><path d="M30.685 33.694h9.029a3.367 3.367 0 003.363-3.363 3.367 3.367 0 00-3.363-3.364h-9.029a3.367 3.367 0 00-3.363 3.364 3.367 3.367 0 003.363 3.363zm10.927-3.364a1.9 1.9 0 01-1.898 1.899 1.9 1.9 0 01-1.898-1.898 1.9 1.9 0 011.898-1.899 1.9 1.9 0 011.898 1.899zm-10.927-1.898h6.255a3.344 3.344 0 00-.59 1.899c0 .703.218 1.357.59 1.898h-6.255a1.9 1.9 0 01-1.898-1.898 1.9 1.9 0 011.898-1.899zm-11.81.801a.732.732 0 00-.733-.732H8.751a.732.732 0 100 1.464h9.391a.732.732 0 00.733-.732zM8.751 30.73a.732.732 0 000 1.466h3.358a.732.732 0 100-1.465H8.751zm5.437 1.466h7.204a.732.732 0 100-1.465h-7.204a.732.732 0 100 1.465zM8.751 21.339h2.598a.732.732 0 100-1.465H8.75a.732.732 0 000 1.465zm12.641-1.465h-7.945a.732.732 0 000 1.465h7.945a.732.732 0 100-1.465zm0 2.23H8.75a.732.732 0 100 1.465h12.64a.732.732 0 100-1.465zM8.751 12.712h9.391a.732.732 0 100-1.465H8.751a.732.732 0 100 1.465zm0 2.23h8.352a.732.732 0 100-1.465H8.75a.732.732 0 000 1.465zm12.641-1.465h-2.21a.732.732 0 000 1.465h2.21a.732.732 0 100-1.465z" fill="#005CE6"/></svg>