<svg width="47" height="50" fill="none" xmlns="http://www.w3.org/2000/svg"><path d="M12.738 33.117a2.935 2.935 0 004.15 4.15l25.094-25.094a5.569 5.569 0 000-7.88 5.574 5.574 0 00-7.88 0l-21.789 21.79a.732.732 0 001.036 1.035L35.138 5.33a4.11 4.11 0 015.808 0 4.105 4.105 0 010 5.808L15.852 36.231a1.471 1.471 0 01-2.078 0 1.471 1.471 0 010-2.078L31.427 16.5a2.061 2.061 0 10-2.916-2.916L10.857 31.236a5.596 5.596 0 000 7.91 5.596 5.596 0 007.911 0l16.222-16.22a.732.732 0 00-1.036-1.037L17.733 38.111a4.132 4.132 0 01-5.84 0 4.132 4.132 0 010-5.839L29.546 14.62a.597.597 0 11.845.845L12.738 33.117z" fill="#005CE6"/><path d="M37.406 20.51l6.456-6.457a8.227 8.227 0 000-11.64 8.226 8.226 0 00-11.64 0L3.186 31.449a10.862 10.862 0 000 15.37c4.241 4.241 11.128 4.241 15.37 0L40.21 25.165a2.061 2.061 0 10-2.917-2.916L15.64 43.903a6.75 6.75 0 01-9.538 0 6.74 6.74 0 010-9.538l4.83-4.83a.732.732 0 00-1.035-1.036l-4.83 4.83a8.204 8.204 0 000 11.61 8.213 8.213 0 0011.608 0L38.33 23.285a.597.597 0 11.845.845L17.52 45.782c-3.67 3.67-9.63 3.67-13.299 0a9.398 9.398 0 010-13.299L33.257 3.45a6.762 6.762 0 019.57 0 6.762 6.762 0 010 9.569l-6.456 6.455a.732.732 0 101.035 1.036z" fill="#005CE6"/></svg>