<svg width="50" height="50" fill="none" xmlns="http://www.w3.org/2000/svg"><path d="M8.29 6.848c0 .405.328.733.732.733h.05a.732.732 0 00.732-.733c0-.976-1.514-.977-1.514 0zm2.49 0c0 .405.328.733.733.733h.049a.732.732 0 00.732-.733c0-.976-1.514-.977-1.514 0zm-4.2-.732h-.048a.732.732 0 100 1.465h.049a.732.732 0 100-1.465zm35.548 0H15.716a.732.732 0 100 1.465h26.412a.732.732 0 100-1.465z" fill="#005CE6"/><path d="M43.676 0H13.063a.732.732 0 100 1.465h30.613c2.68 0 4.86 2.18 4.86 4.859v4.48H1.464v-4.48c0-2.68 2.18-4.86 4.859-4.86h3.32a.732.732 0 100-1.464h-3.32A6.33 6.33 0 000 6.324v37.352A6.33 6.33 0 006.324 50h26.135a.732.732 0 100-1.465H6.324a4.864 4.864 0 01-4.86-4.858V12.268h47.071v31.407c0 2.68-2.18 4.86-4.859 4.86h-7.799a.732.732 0 100 1.464h7.8A6.33 6.33 0 0050 43.676V6.324A6.33 6.33 0 0043.676 0z" fill="#005CE6"/><path d="M34.168 25.626a.732.732 0 00.732-.732c-.114-1.476.38-2.996-.85-4.573-.293-.379-2.9-2.943-3.047-3.068a4.86 4.86 0 00-3.15-1.148c-10.352.002-9.8-.012-9.996.02a1.58 1.58 0 00-1.33 1.558v16.596c0 .87.707 1.578 1.578 1.578h5.697v1.88l-.022-.02a2.037 2.037 0 00-1.45-.601c-1.81 0-2.746 2.205-1.45 3.5l2.806 2.807a3.065 3.065 0 004.333 0l2.807-2.806c1.29-1.29.366-3.501-1.45-3.501-.548 0-1.064.213-1.45.6l-.023.022v-1.881h5.419a1.58 1.58 0 001.578-1.578v-5.967a.732.732 0 10-1.465 0c-.05 6.062.107 6.08-.113 6.08h-5.419V32.45c0-1.131-.92-2.051-2.05-2.051-1.131 0-2.051.92-2.051 2.05v1.944c-5.77-.05-5.811.107-5.811-.114.035-17.625-.096-16.692.114-16.708 3.863 0 9.73-.002 9.865.002.246.524.174.653.178 3.485a1.9 1.9 0 001.67 1.884c.386.046 3.357-.007 3.617.024v1.929c0 .405.328.732.733.732zm-8.901 13.88V32.45a.587.587 0 011.172 0v7.057c0 .65.788.98 1.25.518l1.272-1.272a.587.587 0 011 .414c0 .428-.153.315-2.977 3.221a1.6 1.6 0 01-2.262 0l-2.806-2.806a.587.587 0 01.414-1c.411 0 .46.285 1.686 1.443a.733.733 0 001.25-.518zm4.71-18.022a.433.433 0 01-.363-.427c-.003-2.973.008-2.79-.015-3.008.527.31.562.408 3.088 2.934.155.156.285.327.39.507-3.3 0-3.02.005-3.1-.006z" fill="#005CE6"/></svg>