<svg width="48" height="50" fill="none" xmlns="http://www.w3.org/2000/svg"><path d="M47.128 2.434h-9.961V.732A.732.732 0 0036.434 0H11.217a.732.732 0 00-.732.732v1.702H.872a.74.74 0 00-.733.732v19.22c0 .404.328.732.733.732h9.613v5.347c0 .405.328.733.732.733h2.236c-.144.276-.24.582-.278.908l-.963 8.338c-.027.236-.04.475-.038.706 0 1.88.956 3.428 2.34 4.619l2.438 2.1v3.399c0 .404.328.732.732.732h2.254a.732.732 0 100-1.465h-1.521v-3.003a.733.733 0 00-.255-.555l-2.405-2.07c-1.175-1.012-2.088-2.12-2.118-3.769a4.345 4.345 0 01.029-.526l.963-8.338a1.164 1.164 0 011.157-1.03c.388 0 .713.213.872.396.263.3.292.637.292.768v6.175a.732.732 0 001.465 0V16.736a1.165 1.165 0 012.328-.005v9.276c0 1.118 1.472 1.116 1.47.009 0-.16 0-.627.003-.749.131-1.49 2.629-1.454 2.629.077v1.11c0 .944 1.464.944 1.464 0 0-.644.523-1.167 1.166-1.167.728 0 1.466.316 1.466 1.166v.722c0 .935 1.448.95 1.464.013.003-.153.011-.187.038-.3.294-1.146 1.991-1.152 2.29-.005l.903 3.48a14.741 14.741 0 01-.076 7.679l-2.048 7.292a.728.728 0 00-.027.198v3.003h-8.043a.732.732 0 100 1.465h8.775a.732.732 0 00.733-.732v-3.635l2.02-7.195c.773-2.754.802-5.673.084-8.443l-.207-.797h1.586a.732.732 0 00.732-.733V6.869h9.23v14.784h-6.52a.732.732 0 000 1.465h7.252a.732.732 0 00.732-.733V3.166a.733.733 0 00-.733-.732zM1.604 3.899h8.88v1.505h-8.88V3.9zM11.95 1.465h23.752v3.94H11.95v-3.94zM1.604 21.653V6.869h8.88v14.784h-8.88zm32.864 6.08l-.316-1.219c-.463-1.78-2.664-2.55-4.143-1.454-.801-1.279-2.68-1.63-3.941-.827-.654-1.405-2.5-1.926-3.858-1.242v-5.523h6.662a.71.71 0 01.71.71v1.407a.71.71 0 01-.71.71h-4.009a.732.732 0 100 1.464h4.01a2.176 2.176 0 002.173-2.174v-1.407a2.176 2.176 0 00-2.174-2.174h-6.767a2.633 2.633 0 00-2.524-1.897 2.632 2.632 0 00-2.63 2.63v10.996H11.95V6.869h23.752v20.864h-1.234zm2.699-22.329V3.9h9.229v1.505h-9.23z" fill="#005CE6"/><path d="M28.072 2.738H19.58a.732.732 0 100 1.465h8.493a.732.732 0 000-1.465zm-7.263 5.537h-5.783a.732.732 0 00-.733.732v3.345c0 .405.328.733.733.733h5.783a.732.732 0 00.732-.733V9.007a.732.732 0 00-.732-.732zm-.733 3.345h-4.318V9.74h4.318v1.88zm19.291.56h4.35a.732.732 0 000-1.464h-4.35a.732.732 0 100 1.464zm4.351 3.151a.732.732 0 100-1.465h-4.351a.732.732 0 100 1.465h4.35zM3.828 12.18h4.35a.732.732 0 000-1.464h-4.35a.732.732 0 100 1.464zm4.351 1.686h-4.35a.732.732 0 100 1.465h4.35a.732.732 0 100-1.465zm24.04-3.919h-7.77a.732.732 0 100 1.465h7.77a.732.732 0 100-1.465z" fill="#005CE6"/></svg>