<svg width="50" height="50" fill="none" xmlns="http://www.w3.org/2000/svg"><path d="M46.914 6.092a3.05 3.05 0 003.046-3.046A3.05 3.05 0 0046.914 0a3.05 3.05 0 00-3.046 3.046 3.05 3.05 0 003.046 3.046zm0-4.63a1.585 1.585 0 010 3.168c-.873 0-1.584-.71-1.584-1.584 0-.873.71-1.584 1.584-1.584zM10.463 46.296h-2.42a.731.731 0 100 1.462h2.42a.73.73 0 100-1.462zm18.872 0h-2.42a.731.731 0 100 1.462h2.42a.73.73 0 100-1.462zm-12.582 0h-2.42a.731.731 0 100 1.462h2.42a.73.73 0 100-1.462zm6.291 0h-2.42a.731.731 0 100 1.462h2.42a.73.73 0 100-1.462zm18.873 0h-2.42a.731.731 0 100 1.462h2.42a.73.73 0 100-1.462zm-6.29 0h-2.42a.731.731 0 100 1.462h2.42a.73.73 0 100-1.462zM3.684 26.936a.731.731 0 10-1.462 0v2.42a.73.73 0 101.462 0v-2.42zm0-6.291a.731.731 0 10-1.462 0v2.42a.731.731 0 101.462 0v-2.42zm0 12.582a.731.731 0 10-1.462 0v2.42a.731.731 0 101.462 0v-2.42zm-.731 5.56a.731.731 0 00-.73.73v2.42a.731.731 0 101.461 0v-2.42a.731.731 0 00-.73-.73zm.731-30.724a.731.731 0 10-1.462 0v2.42a.731.731 0 101.462 0v-2.42zm0 6.291a.73.73 0 10-1.462 0v2.42a.731.731 0 101.462 0v-2.42zm10.65-10.65h2.42a.731.731 0 100-1.462h-2.42a.731.731 0 100 1.462zm25.164 0h2.42a.731.731 0 100-1.462h-2.42a.731.731 0 100 1.462zm-18.873 0h2.42a.73.73 0 100-1.462h-2.42a.731.731 0 100 1.462zm6.291 0h2.42a.731.731 0 100-1.462h-2.42a.731.731 0 100 1.462zm6.291 0h2.42a.731.731 0 100-1.462h-2.42a.73.73 0 100 1.462zm-25.164 0h2.42a.73.73 0 100-1.462h-2.42a.73.73 0 100 1.462zm39.695 23.232a.731.731 0 10-1.462 0v2.42a.73.73 0 101.462 0v-2.42zm0-6.291a.731.731 0 10-1.462 0v2.42a.731.731 0 101.462 0v-2.42zm-.731 18.142a.731.731 0 00-.73.73v2.42a.731.731 0 101.461 0v-2.42a.731.731 0 00-.73-.73zm.731-5.56a.731.731 0 10-1.462 0v2.42a.731.731 0 101.462 0v-2.42zm0-18.873a.73.73 0 10-1.462 0v2.42a.731.731 0 101.462 0v-2.42zm0-6.291a.731.731 0 10-1.462 0v2.42a.731.731 0 101.462 0v-2.42zM3.046 6.092a3.05 3.05 0 003.046-3.046A3.05 3.05 0 003.046 0 3.05 3.05 0 000 3.046a3.05 3.05 0 003.046 3.046zm0-4.63a1.585 1.585 0 010 3.168c-.873 0-1.584-.71-1.584-1.584 0-.873.71-1.584 1.584-1.584zm43.868 42.446a3.05 3.05 0 00-3.046 3.046A3.05 3.05 0 0046.914 50a3.05 3.05 0 003.046-3.046 3.05 3.05 0 00-3.046-3.046zm0 4.63c-.873 0-1.584-.71-1.584-1.584a1.585 1.585 0 111.584 1.584zm-43.868-4.63A3.05 3.05 0 000 46.954 3.05 3.05 0 003.046 50a3.05 3.05 0 003.046-3.046 3.05 3.05 0 00-3.046-3.046zm0 4.63a1.585 1.585 0 111.584-1.584c0 .873-.71 1.584-1.584 1.584zM44.273 9.112a2.598 2.598 0 00-2.596-2.596H8.284a2.598 2.598 0 00-2.596 2.596v2.587a.731.731 0 101.462 0V9.112c0-.625.509-1.134 1.134-1.134h33.395c.625 0 1.133.509 1.133 1.134v18.186L39.75 25.37a.731.731 0 00-.78 1.237l3.842 2.419v11.863c0 .625-.508 1.133-1.133 1.133h-5.632v-5.684c0-1.588-.75-3.114-2.006-4.084l-7.618-5.879 4.911-2.805a2.824 2.824 0 012.912.062l1.833 1.155a.731.731 0 00.78-1.238l-1.834-1.154a4.283 4.283 0 00-4.416-.095l-5.44 3.108-6.526-5.038a4.29 4.29 0 00-4.697-.36L7.15 23.762v-8.606a.731.731 0 10-1.462 0V40.89a2.598 2.598 0 002.596 2.595h33.395a2.598 2.598 0 002.595-2.595V9.112zm-9.689 32.91H8.283a1.135 1.135 0 01-1.134-1.133V25.43l7.503-4.141a2.828 2.828 0 013.096.237L33.147 33.41a3.72 3.72 0 011.437 2.926v5.685z" fill="#005CE6"/><path d="M34.973 18.933a4.392 4.392 0 004.387-4.387 4.392 4.392 0 00-4.387-4.387 4.392 4.392 0 00-4.387 4.387 4.392 4.392 0 004.387 4.387zm0-7.312a2.928 2.928 0 012.925 2.925 2.928 2.928 0 01-2.925 2.925 2.928 2.928 0 01-2.925-2.925 2.928 2.928 0 012.925-2.925z" fill="#005CE6"/></svg>