<svg width="58" height="50" fill="none" xmlns="http://www.w3.org/2000/svg"><path d="M56.438 17.107l-2.913-2.518a.865.865 0 10-1.132 1.31l2.913 2.518a2.492 2.492 0 01.256 3.51L36.64 43.825a.865.865 0 001.31 1.132l18.92-21.898a4.225 4.225 0 00-.433-5.952zm-5.129-4.432L37.832 1.027A4.195 4.195 0 0034.766.011a4.192 4.192 0 00-2.886 1.45l-1.285 1.486a.865.865 0 101.31 1.131l1.284-1.486a2.473 2.473 0 011.703-.855 2.471 2.471 0 011.808.6l13.477 11.647a.862.862 0 001.22-.089.866.866 0 00-.088-1.22z" fill="#005CE6"/><path d="M43.094 9.616L19.78 1.796a4.224 4.224 0 00-5.343 2.658l-.307.917a.865.865 0 001.64.55l.308-.916a2.492 2.492 0 013.152-1.569l23.315 7.82a2.492 2.492 0 011.569 3.152L33.265 46.751a.865.865 0 001.64.55l10.849-32.343a4.225 4.225 0 00-2.66-5.342z" fill="#005CE6"/><path d="M28.812 7.446H4.22A4.225 4.225 0 000 11.666V45.78A4.225 4.225 0 004.22 50h24.592a4.225 4.225 0 004.22-4.22V11.666a4.225 4.225 0 00-4.22-4.22zm2.49 38.334a2.492 2.492 0 01-2.49 2.49H4.22a2.492 2.492 0 01-2.49-2.49V11.666a2.492 2.492 0 012.49-2.49h24.592a2.492 2.492 0 012.49 2.49V45.78z" fill="#005CE6"/><path d="M29.262 31.328H3.77a.865.865 0 000 1.73h25.493a.865.865 0 100-1.73zm-4.033 4.948H14.514a.865.865 0 100 1.73h10.715a.865.865 0 000-1.73zm-13.599 0H7.803a.865.865 0 000 1.73h3.827a.865.865 0 000-1.73zm13.599 3.308H7.803a.865.865 0 000 1.73H25.23a.865.865 0 000-1.73zm0 3.307H7.803a.865.865 0 000 1.73H25.23a.865.865 0 000-1.73zm.797-25.405a.865.865 0 00-.698-.589l-5.553-.806-2.483-5.032a.865.865 0 00-1.552 0l-2.483 5.031-5.553.807a.865.865 0 00-.48 1.476l4.019 3.916-.949 5.53a.865.865 0 001.256.913l4.966-2.611 4.966 2.61a.865.865 0 001.256-.911l-.949-5.53 4.018-3.917a.865.865 0 00.219-.887zm-5.77 3.882a.865.865 0 00-.25.766l.73 4.25-3.817-2.007a.865.865 0 00-.806 0l-3.817 2.007.73-4.25a.865.865 0 00-.25-.766l-3.088-3.01 4.268-.62a.865.865 0 00.651-.474l1.909-3.867 1.908 3.867c.126.255.37.433.652.473l4.268.62-3.088 3.01z" fill="#005CE6"/></svg>