<svg width="49" height="50" fill="none" xmlns="http://www.w3.org/2000/svg"><path d="M48.064 42.206a.732.732 0 00.732-.733V21.55c0-.929-.756-1.685-1.685-1.685h-1.14V10.88c0-.867-.705-1.571-1.572-1.571h-.917V1.47c0-.811-.66-1.471-1.47-1.471H6.784c-.812 0-1.471.66-1.471 1.471v7.838h-.918c-.866 0-1.57.704-1.57 1.57v8.986h-1.14c-.93 0-1.685.757-1.685 1.685v26.765C0 49.245.756 50 1.685 50h45.426c.929 0 1.685-.756 1.685-1.685v-3.652a.733.733 0 00-1.465 0v3.652a.22.22 0 01-.22.22H1.685a.22.22 0 01-.22-.22V28.146H47.33v13.327c0 .405.328.733.733.733zM42.017 1.47v3.815H6.782l.003-3.821 35.232.006zm-37.62 9.303h14.121a.733.733 0 000-1.465H6.78l.002-2.559h35.236V9.31h-20.31a.732.732 0 100 1.465H44.4c.059 0 .106.047.106.106v4.43H4.29v-4.43c0-.059.048-.107.107-.107zM1.465 26.68v-5.13c0-.12.099-.22.22-.22h26.061a.732.732 0 100-1.465H4.29v-3.09h40.216v3.09h-13.57a.732.732 0 100 1.465H47.11a.22.22 0 01.22.22v5.131H1.465z" fill="#005CE6"/><path d="M38.08 22.44h-1.715a.732.732 0 100 1.465h1.715a.732.732 0 100-1.465zm0 1.778h-1.715a.732.732 0 100 1.465h1.715a.732.732 0 100-1.465zm5.188-1.448a.733.733 0 00-1.036 0l-.189.188-.188-.188a.732.732 0 10-1.036 1.035l.188.189-.188.188a.732.732 0 101.036 1.036l.188-.189.189.19a.73.73 0 001.036 0 .733.733 0 000-1.037l-.19-.188.19-.19a.733.733 0 000-1.035zm-4.348-8.591a.73.73 0 001.036 0l.1-.101.102.1a.729.729 0 001.036 0 .732.732 0 000-1.035l-.102-.101.102-.101a.733.733 0 10-1.036-1.036l-.101.101-.101-.1a.733.733 0 00-1.036 1.035l.101.1-.101.102a.733.733 0 000 1.036zm-2.86-9.792a.73.73 0 001.012.021.73.73 0 001.034-1.033.732.732 0 00-1.034-1.033.732.732 0 00-1.033 1.033.732.732 0 00.021 1.012zM8.336 13.774h7.103a.733.733 0 000-1.464H8.336a.732.732 0 100 1.464zm2.798-9.667h7.103a.732.732 0 100-1.464h-7.103a.732.732 0 100 1.464zm2.056 19.326H6.087a.732.732 0 100 1.465h7.103a.733.733 0 000-1.465zm-3.363 7.141a3.403 3.403 0 00-3.399 3.4 3.403 3.403 0 003.4 3.398 3.403 3.403 0 003.398-3.398c0-1.875-1.525-3.4-3.399-3.4zm0 5.333a1.937 1.937 0 01-1.934-1.934c0-1.066.868-1.934 1.934-1.934 1.067 0 1.934.868 1.934 1.934a1.937 1.937 0 01-1.934 1.934zm0 3.115a3.403 3.403 0 00-3.399 3.399c0 1.874 1.525 3.4 3.4 3.4a3.403 3.403 0 003.398-3.4 3.403 3.403 0 00-3.399-3.399zm0 5.333a1.937 1.937 0 01-1.934-1.934c0-1.066.868-1.934 1.934-1.934 1.067 0 1.934.868 1.934 1.934a1.937 1.937 0 01-1.934 1.934zm6.571-11.149h2.572a.732.732 0 000-1.465h-2.572a.733.733 0 000 1.465zm20.38.775h-20.38a.732.732 0 100 1.465h20.38a.732.732 0 100-1.465zm-20.38 8.052h2.572a.732.732 0 100-1.465h-2.572a.733.733 0 000 1.465zm0 2.24h20.38a.733.733 0 000-1.464h-20.38a.732.732 0 100 1.464z" fill="#005CE6"/></svg>