<?xml version="1.0" encoding="utf-8"?><svg xmlns="http://www.w3.org/2000/svg" xmlns:xlink="http://www.w3.org/1999/xlink"><symbol viewBox="0 0 20 27" id="arrow" xmlns="http://www.w3.org/2000/svg"><path fill-rule="evenodd" clip-rule="evenodd" d="M8.5 13.5L.687 5.687 6.374 0l13.5 13.5L6.373 27 .687 21.313 8.5 13.5z"/></symbol><symbol viewBox="0 0 134 16" id="curve" xmlns="http://www.w3.org/2000/svg"><path d="M.5 4.817v.31l.278.138 18.905 9.34.221.11.221-.11 18.91-9.336 18.91 9.336.221.11.221-.11 18.91-9.336 18.896 9.336.222.11.221-.11 18.91-9.336 17.122 8.45.721.356v-3.747l-.279-.138-17.343-8.56-.221-.109-.222.11-18.91 9.336L77.52 1.63l-.222-.109-.221.11-18.91 9.336-18.91-9.337-.22-.109-.222.11-18.91 9.336-18.683-9.23L.5 1.38v3.437z"/></symbol><symbol viewBox="0 0 12 12" id="mincircle" xmlns="http://www.w3.org/2000/svg"><path d="M.017 5.906a5.906 5.906 0 1111.812 0 5.906 5.906 0 01-11.812 0z" fill-opacity=".42"/></symbol><symbol viewBox="0 0 49 49" id="plus" xmlns="http://www.w3.org/2000/svg"><path d="M31.023 0H18.01v48.591h13.014V0z"/><path d="M49 30.748V17.843H0v12.905h49z"/></symbol><symbol viewBox="0 0 15 13" id="twitter" xmlns="http://www.w3.org/2000/svg"><path fill-rule="evenodd" clip-rule="evenodd" d="M14.504.773a6.064 6.064 0 01-1.892.708 3.001 3.001 0 00-2.174-.922C8.793.559 7.46 1.866 7.46 3.478c0 .228.026.45.077.664a8.509 8.509 0 01-6.139-3.05 2.864 2.864 0 00-.402 1.467c0 1.014.526 1.907 1.324 2.43a3.035 3.035 0 01-1.349-.366v.036c0 1.414 1.027 2.593 2.39 2.863a3.057 3.057 0 01-1.346.049 2.978 2.978 0 002.781 2.028 6.059 6.059 0 01-3.699 1.249c-.24 0-.477-.014-.71-.04a8.563 8.563 0 004.565 1.31c5.478 0 8.474-4.447 8.474-8.304l-.01-.38a5.908 5.908 0 001.488-1.507 6.059 6.059 0 01-1.71.459 2.943 2.943 0 001.31-1.613z"/></symbol><symbol viewBox="0 0 18 10" id="vk" xmlns="http://www.w3.org/2000/svg"><path fill-rule="evenodd" clip-rule="evenodd" d="M15.257 6.54c.55.506 1.13.982 1.624 1.539.217.247.424.503.582.79.223.408.021.858-.368.882L14.68 9.75c-.623.049-1.12-.188-1.538-.59-.334-.32-.644-.661-.966-.993a2.207 2.207 0 00-.434-.364c-.33-.202-.616-.14-.805.184-.19.33-.235.694-.254 1.062-.026.536-.198.676-.769.701-1.22.054-2.38-.12-3.456-.7-.949-.512-1.685-1.234-2.326-2.052-1.247-1.592-2.202-3.341-3.06-5.14-.194-.405-.052-.623.422-.63a69.055 69.055 0 012.365-.002c.32.005.532.178.656.463.426.988.948 1.928 1.603 2.798.174.232.352.464.605.627.28.181.493.121.625-.173.084-.186.12-.387.14-.587.062-.686.07-1.373-.04-2.057-.067-.427-.322-.704-.775-.784-.23-.041-.196-.123-.084-.247.194-.214.376-.347.74-.347h2.73c.43.08.525.262.584.669l.002 2.857c-.004.158.084.626.385.731.242.074.401-.108.546-.253.653-.653 1.12-1.426 1.537-2.225.184-.352.343-.717.498-1.082.114-.271.293-.404.617-.398l2.627.002c.078 0 .157.001.232.013.443.072.564.251.427.658-.215.639-.634 1.172-1.044 1.706-.438.572-.907 1.124-1.34 1.698-.4.525-.369.789.127 1.245z"/></symbol></svg>