<svg width="134" height="16" viewBox="0 0 134 16" fill="none" xmlns="http://www.w3.org/2000/svg">
<path d="M0.499939 4.81711V5.12777L0.778461 5.26538L19.6826 14.6054L19.904 14.7148L20.1255 14.6054L39.0351 5.2689L57.9447 14.6054L58.1661 14.7147L58.3874 14.6054L77.297 5.26894L96.1932 14.6054L96.4146 14.7148L96.636 14.6054L115.546 5.26888L132.668 13.7191L133.389 14.0751V13.2707V10.6381V10.3273L133.11 10.1897L115.767 1.63025L115.546 1.52101L115.324 1.63028L96.4147 10.9668L77.5185 1.63035L77.2971 1.52095L77.0757 1.63028L58.1661 10.9668L39.2564 1.63028L39.0351 1.52099L38.8137 1.63028L19.9042 10.9668L1.22142 1.73618L0.499939 1.37972V2.18445V4.81711Z" fill="white" stroke="white"/>
</svg>
