<svg width="22" height="22" viewBox="0 0 22 22" fill="none" xmlns="http://www.w3.org/2000/svg">
<path fill-rule="evenodd" clip-rule="evenodd" d="M11 0C4.95 0 0 4.949 0 11C0 17.05 4.95 21.999 11 21.999C17.05 21.999 22 17.05 22 11C22 4.949 17.05 0 11 0ZM11 3.299C12.87 3.299 14.3 4.729 14.3 6.599C14.3 8.469 12.87 9.899 11 9.899C9.13 9.899 7.7 8.469 7.7 6.599C7.7 4.729 9.13 3.299 11 3.299ZM11 18.92C8.25 18.92 5.83 17.489 4.4 15.399C4.4 13.2 8.8 11.99 11 11.99C13.2 11.99 17.6 13.2 17.6 15.399C16.17 17.489 13.75 18.92 11 18.92Z" fill="white"/>
</svg>
