<svg width="15" height="13" viewBox="0 0 15 13" fill="none" xmlns="http://www.w3.org/2000/svg">
<path fill-rule="evenodd" clip-rule="evenodd" d="M14.5042 0.772593C13.9282 1.10659 13.2902 1.34959 12.6122 1.48059C12.0682 0.912594 11.2952 0.558594 10.4382 0.558594C8.79321 0.558594 7.46021 1.86559 7.46021 3.47759C7.46021 3.70559 7.48621 3.92859 7.53721 4.14159C5.06221 4.02059 2.86721 2.85859 1.39821 1.09159C1.14221 1.52259 0.996208 2.02459 0.996208 2.55859C0.996208 3.57259 1.52221 4.46559 2.32021 4.98859C1.83221 4.97259 1.37321 4.84059 0.971214 4.62259V4.65859C0.971214 6.07259 1.99821 7.25159 3.36021 7.52159C3.11021 7.58659 2.84721 7.62359 2.57521 7.62359C2.38321 7.62359 2.19721 7.60459 2.01421 7.57059C2.39421 8.73059 3.49321 9.5736 4.79621 9.59859C3.77721 10.3806 2.49221 10.8476 1.09721 10.8476C0.857214 10.8476 0.620207 10.8336 0.387207 10.8076C1.70521 11.6346 3.27021 12.1186 4.95221 12.1186C10.4302 12.1186 13.4262 7.67059 13.4262 3.81359L13.4162 3.43459C14.0002 3.02459 14.5062 2.51159 14.9042 1.92659C14.3702 2.15759 13.7972 2.31559 13.1942 2.38559C13.8092 2.02459 14.2812 1.45259 14.5042 0.772593Z" fill="#4AA9DF"/>
</svg>
