<svg width="18" height="10" viewBox="0 0 18 10" fill="none" xmlns="http://www.w3.org/2000/svg">
<path fill-rule="evenodd" clip-rule="evenodd" d="M15.2574 6.53995C15.8074 7.04595 16.3874 7.52195 16.8814 8.07895C17.0984 8.32595 17.3054 8.58195 17.4634 8.86895C17.6864 9.27695 17.4844 9.72695 17.0954 9.75095L14.6804 9.74995C14.0574 9.79895 13.5604 9.56194 13.1424 9.16094C12.8084 8.83994 12.4984 8.49895 12.1764 8.16695C12.0454 8.03095 11.9074 7.90395 11.7424 7.80295C11.4124 7.60095 11.1264 7.66295 10.9374 7.98695C10.7464 8.31695 10.7024 8.68095 10.6834 9.04895C10.6574 9.58495 10.4854 9.72495 9.91439 9.74995C8.69339 9.80395 7.53439 9.62994 6.45839 9.04994C5.50939 8.53794 4.77339 7.81594 4.13239 6.99794C2.88539 5.40594 1.93039 3.65695 1.07239 1.85795C0.878387 1.45295 1.02039 1.23495 1.49439 1.22795C2.28239 1.21295 3.07039 1.21395 3.85939 1.22595C4.17939 1.23095 4.39139 1.40395 4.51539 1.68895C4.94139 2.67695 5.46339 3.61695 6.11839 4.48695C6.29239 4.71895 6.47039 4.95095 6.72339 5.11395C7.00339 5.29495 7.21639 5.23495 7.34839 4.94095C7.43239 4.75495 7.46839 4.55395 7.48739 4.35395C7.55039 3.66795 7.55839 2.98095 7.44839 2.29695C7.38139 1.86995 7.12639 1.59295 6.67339 1.51295C6.44239 1.47195 6.47739 1.38995 6.58939 1.26595C6.78339 1.05195 6.96539 0.918945 7.32939 0.918945H10.0594C10.4894 0.998945 10.5844 1.18095 10.6434 1.58795L10.6454 4.44495C10.6414 4.60295 10.7294 5.07095 11.0304 5.17595C11.2724 5.24995 11.4314 5.06795 11.5764 4.92295C12.2294 4.26995 12.6964 3.49695 13.1134 2.69795C13.2974 2.34595 13.4564 1.98095 13.6114 1.61595C13.7254 1.34495 13.9044 1.21195 14.2284 1.21795L16.8554 1.21995C16.9334 1.21995 17.0124 1.22095 17.0874 1.23295C17.5304 1.30495 17.6514 1.48395 17.5144 1.89095C17.2994 2.52995 16.8804 3.06295 16.4704 3.59695C16.0324 4.16895 15.5634 4.72095 15.1294 5.29495C14.7294 5.81995 14.7614 6.08395 15.2574 6.53995Z" fill="#6087AA"/>
</svg>
