<svg width="41" height="34" fill="none" xmlns="http://www.w3.org/2000/svg"><path d="M8.617 18.417c-2.533 0-4.602-.819-6.208-2.456C.803 14.324 0 12.073 0 9.208c0-1.92.37-3.573 1.112-4.958.741-1.385 1.76-2.44 3.057-3.164C5.498.362 6.98 0 8.617 0c1.637 0 3.104.362 4.401 1.086 1.328.724 2.363 1.779 3.104 3.164.741 1.385 1.112 3.038 1.112 4.958 0 2.865-.803 5.116-2.41 6.753-1.605 1.637-3.675 2.456-6.207 2.456zM27.657.472h7.83L13.342 33.528H5.513L27.658.472zM8.618 13.317c.587 0 1.065-.315 1.436-.945.402-.66.602-1.716.602-3.164 0-1.448-.2-2.487-.602-3.116-.37-.661-.85-.992-1.436-.992-.587 0-1.081.33-1.483.992-.37.63-.555 1.668-.555 3.116 0 1.448.185 2.503.555 3.164.402.63.896.945 1.483.945zM32.383 34c-2.533 0-4.602-.819-6.208-2.456-1.606-1.637-2.409-3.887-2.409-6.752 0-1.92.37-3.574 1.112-4.959.741-1.385 1.76-2.44 3.058-3.164 1.328-.724 2.81-1.086 4.447-1.086s3.104.362 4.401 1.086c1.328.724 2.363 1.78 3.104 3.164C40.63 21.22 41 22.871 41 24.792c0 2.864-.803 5.115-2.409 6.752C36.985 33.181 34.916 34 32.383 34zm0-5.1c.587 0 1.066-.315 1.436-.944.402-.662.602-1.716.602-3.164 0-1.449-.2-2.487-.602-3.117-.37-.661-.85-.992-1.436-.992-.587 0-1.08.33-1.482.992-.371.63-.556 1.668-.556 3.117 0 1.448.185 2.502.556 3.164.401.63.895.944 1.482.944z" fill="#fff"/></svg>