<svg width="15" height="13" fill="none" xmlns="http://www.w3.org/2000/svg"><path fill-rule="evenodd" clip-rule="evenodd" d="M14.504.773a6.064 6.064 0 01-1.892.708 3.001 3.001 0 00-2.174-.922C8.793.559 7.46 1.866 7.46 3.478c0 .228.026.45.077.664a8.509 8.509 0 01-6.139-3.05 2.864 2.864 0 00-.402 1.467c0 1.014.526 1.907 1.324 2.43a3.035 3.035 0 01-1.349-.366v.036c0 1.414 1.027 2.593 2.39 2.863a3.057 3.057 0 01-1.346.049 2.978 2.978 0 002.781 2.028 6.059 6.059 0 01-3.699 1.249c-.24 0-.477-.014-.71-.04a8.563 8.563 0 004.565 1.31c5.478 0 8.474-4.447 8.474-8.304l-.01-.38a5.908 5.908 0 001.488-1.507 6.059 6.059 0 01-1.71.459 2.943 2.943 0 001.31-1.613z" fill="#4AA9DF"/></svg>