<svg width="18" height="10" fill="none" xmlns="http://www.w3.org/2000/svg"><path fill-rule="evenodd" clip-rule="evenodd" d="M15.257 6.54c.55.506 1.13.982 1.624 1.539.217.247.424.503.582.79.223.408.021.858-.368.882L14.68 9.75c-.623.049-1.12-.188-1.538-.59-.334-.32-.644-.661-.966-.993a2.207 2.207 0 00-.434-.364c-.33-.202-.616-.14-.805.184-.19.33-.235.694-.254 1.062-.026.536-.198.676-.769.701-1.22.054-2.38-.12-3.456-.7-.949-.512-1.685-1.234-2.326-2.052-1.247-1.592-2.202-3.341-3.06-5.14-.194-.405-.052-.623.422-.63a69.055 69.055 0 012.365-.002c.32.005.532.178.656.463.426.988.948 1.928 1.603 2.798.174.232.352.464.605.627.28.181.493.121.625-.173.084-.186.12-.387.14-.587.062-.686.07-1.373-.04-2.057-.067-.427-.322-.704-.775-.784-.23-.041-.196-.123-.084-.247.194-.214.376-.347.74-.347h2.73c.43.08.525.262.584.669l.002 2.857c-.004.158.084.626.385.731.242.074.401-.108.546-.253.653-.653 1.12-1.426 1.537-2.225.184-.352.343-.717.498-1.082.114-.271.293-.404.617-.398l2.627.002c.078 0 .157.001.232.013.443.072.564.251.427.658-.215.639-.634 1.172-1.044 1.706-.438.572-.907 1.124-1.34 1.698-.4.525-.369.789.127 1.245z" fill="#6087AA"/></svg>