<svg width="120" height="120" viewBox="0 0 120 120" fill="none" xmlns="http://www.w3.org/2000/svg">
<path fill-rule="evenodd" clip-rule="evenodd" d="M0 0H120V120H0V0Z" fill="#2C4A96"/>
<path fill-rule="evenodd" clip-rule="evenodd" d="M73.412 21.6309V28.9729H81.163V34.4069H73.412V42.9209H83.691V48.3069H67.552V16.2949H83.705V21.6309H73.412ZM71.321 71.3529L76.824 56.8649H83.295L74.174 78.8589V88.8759H68.161V78.8589L59.142 56.8649H65.766L71.154 71.3529H71.321ZM53.842 28.9729H61.69V34.4069H53.893V48.3069H47.727V16.2949H63.88V21.7309H53.842V28.9729ZM61.755 88.8849H55.386L53.602 82.1009H44.125L42.29 88.8849H36.176L45.144 56.8649H52.94L61.755 88.8849ZM49.016 63.3839H48.813L45.249 77.6199H52.466L49.016 63.3839ZM37.089 16.2949H43.204V48.3069H37.089V16.2949ZM33.417 75.5369C32.5 76.4429 31.447 77.1139 30.258 77.5499C29.069 77.9869 27.846 78.2039 26.589 78.2039H22.309V88.8759H16.296V56.8649H26.283C27.439 56.8649 28.627 57.0319 29.85 57.3669C31.073 57.7029 32.169 58.2819 33.137 59.1039C34.105 59.9259 34.903 61.0079 35.532 62.3499C36.16 63.6929 36.475 65.3699 36.475 67.3829C36.475 69.1949 36.194 70.7809 35.634 72.1399C35.073 73.4989 34.334 74.6309 33.417 75.5369ZM29.442 63.2569C28.525 62.3839 27.353 61.9479 25.927 61.9479H22.461V73.2719H25.927C27.353 73.2719 28.525 72.7769 29.442 71.7879C30.36 70.7979 30.818 69.3459 30.818 67.4339C30.818 65.5209 30.36 64.1289 29.442 63.2569ZM16.296 16.2949H22.462V42.7199H32.398V48.3069H16.296V16.2949Z" fill="white"/>
</svg>
